<svg xmlns="http://www.w3.org/2000/svg" viewBox="0 0 222.75 116.12"><defs><style>.cls-1{fill:#0071bd;}.cls-2{fill:#cc2748;}</style></defs><g id="Layer_2" data-name="Layer 2"><g id="Layer_1-2" data-name="Layer 1"><polygon class="cls-1" points="143.23 38.59 137.41 44.41 131.53 50.29 131.43 50.39 120.55 39.52 109.99 50.07 104.33 55.73 76.47 27.86 104.33 0 116.4 12.07 110.73 17.73 104.33 11.32 87.79 27.86 104.33 44.41 114.99 33.74 120.87 27.86 131.61 38.61 137.44 32.79 143.23 38.59"/><rect class="cls-2" x="116.67" y="50.8" width="8.41" height="8.41" transform="translate(-3.5 101.56) rotate(-44.99)"/><path class="cls-1" d="M11.62,93.5A12.38,12.38,0,0,1,7,92.65a10.85,10.85,0,0,1-3.7-2.4A10.6,10.6,0,0,1,.85,86.57,12.41,12.41,0,0,1,0,81.89a11.63,11.63,0,0,1,.9-4.61A11.06,11.06,0,0,1,7.12,71.2a12.51,12.51,0,0,1,4.72-.87,11.88,11.88,0,0,1,3.14.42A11.19,11.19,0,0,1,17.84,72a9.61,9.61,0,0,1,2.29,1.94L16.8,77.73a10.26,10.26,0,0,0-1.42-1.24,6.18,6.18,0,0,0-1.65-.81,6.33,6.33,0,0,0-1.92-.29,6.51,6.51,0,0,0-2.42.46,5.94,5.94,0,0,0-3.31,3.38A7.36,7.36,0,0,0,5.6,82a7.13,7.13,0,0,0,.48,2.67,6.21,6.21,0,0,0,1.34,2.07A5.8,5.8,0,0,0,9.52,88a7.91,7.91,0,0,0,2.74.45,6.78,6.78,0,0,0,3.66-1.08,7,7,0,0,0,1.39-1.13l2.63,4.16A7.71,7.71,0,0,1,17.81,92a12.6,12.6,0,0,1-2.95,1.1A13.25,13.25,0,0,1,11.62,93.5Z"/><path class="cls-1" d="M29.44,93.18V82l.22,1.57-9-12.8h6.17L33.7,80.7l-2.82-.09,6.24-9.83h6L34.43,83.93l.48-2.17V93.18Z"/><path class="cls-1" d="M45.7,93.18V70.78h9.88a10.28,10.28,0,0,1,3.91.66,4.91,4.91,0,0,1,3.23,4.85,5.46,5.46,0,0,1-.94,3.23A4.66,4.66,0,0,1,59,81.28L59,80.67a6.74,6.74,0,0,1,2.6,1.12,5.6,5.6,0,0,1,1.72,2,5.7,5.7,0,0,1,.6,2.64,7.14,7.14,0,0,1-.57,3,5.79,5.79,0,0,1-1.67,2.13,7.32,7.32,0,0,1-2.54,1.28,12,12,0,0,1-3.22.41Zm5.12-13.41h4a3.43,3.43,0,0,0,1.42-.27,2,2,0,0,0,.9-.77,2.27,2.27,0,0,0,.3-1.2,2,2,0,0,0-.7-1.61,3.21,3.21,0,0,0-2.12-.59h-3.8Zm0,8.87h4.89a3.61,3.61,0,0,0,1.52-.29,2.19,2.19,0,0,0,1-.85,2.52,2.52,0,0,0,.35-1.36,2.08,2.08,0,0,0-.37-1.25,2.26,2.26,0,0,0-1-.78,4.29,4.29,0,0,0-1.6-.27H50.82Z"/><path class="cls-1" d="M68.13,93.18V70.78H83.74v4.64H73.41V88.54H84.06v4.64ZM70.69,84V79.58H82.3V84Z"/><path class="cls-1" d="M88.77,93.18V70.78H98.85a8.09,8.09,0,0,1,3.88.93,7,7,0,0,1,2.74,2.54,6.89,6.89,0,0,1,1,3.67,7.32,7.32,0,0,1-1,3.79,7.11,7.11,0,0,1-2.72,2.64,7.88,7.88,0,0,1-3.9,1H94v7.87Zm5.18-12h4.42a2.74,2.74,0,0,0,1.45-.37,2.36,2.36,0,0,0,1-1,3.31,3.31,0,0,0,.34-1.53,2.89,2.89,0,0,0-.39-1.52,2.45,2.45,0,0,0-1.1-1,3.86,3.86,0,0,0-1.74-.35H94Zm7.23,12L95.49,83.07l5.56-.8,6.34,10.91Z"/><path class="cls-1" d="M118.62,93.18l8.87-22.4h4.6l8.8,22.4h-5.5l-4.22-11.36c-.17-.45-.35-.93-.52-1.44s-.34-1-.51-1.58l-.49-1.6c-.16-.52-.3-1-.4-1.46l1,0c-.13.53-.28,1.06-.44,1.57l-.48,1.52c-.16.5-.33,1-.52,1.5s-.38,1-.55,1.55L124,93.18Zm4.23-4.29,1.69-4.09h10.31l1.66,4.09Z"/><path class="cls-1" d="M143.68,93.18V70.78h5.44v17.6h10v4.8Z"/><path class="cls-1" d="M163.17,93.18V70.78h15.61v4.64H168.45V88.54H179.1v4.64ZM165.73,84V79.58h11.61V84Z"/><path class="cls-1" d="M183.81,93.18V70.78h10.08a8.12,8.12,0,0,1,3.88.93,7,7,0,0,1,2.74,2.54,6.89,6.89,0,0,1,1,3.67,7.32,7.32,0,0,1-1,3.79,7.11,7.11,0,0,1-2.72,2.64,7.88,7.88,0,0,1-3.9,1H189v7.87Zm5.18-12h4.42a2.74,2.74,0,0,0,1.45-.37,2.36,2.36,0,0,0,1-1,3.31,3.31,0,0,0,.34-1.53,2.89,2.89,0,0,0-.39-1.52,2.45,2.45,0,0,0-1.1-1,3.86,3.86,0,0,0-1.74-.35H189Zm7.23,12-5.69-10.11,5.56-.8,6.34,10.91Z"/><path class="cls-1" d="M210.49,93.18V75.58h-6.65v-4.8h18.91v4.8h-6.82v17.6Z"/><path class="cls-2" d="M67.37,116.12v-11.2h1.55l6.85,9.16-.26.15c0-.27-.08-.56-.11-.87s-.06-.65-.09-1,0-.74-.06-1.14,0-.82,0-1.25,0-.89,0-1.36v-3.68h1.73v11.2H75.33l-6.73-8.84.17-.22c.06.65.1,1.2.14,1.66s.07.83.1,1.15,0,.57,0,.77,0,.36,0,.48v5Z"/><path class="cls-2" d="M89.65,116.12v-11.2h7.06v1.66H91.38v7.87h5.33v1.67Zm.79-4.92v-1.66h5.39v1.66Z"/><path class="cls-2" d="M109.08,116.12v-11.2h4.56a3.1,3.1,0,0,1,1.65.45,3.42,3.42,0,0,1,1.64,3,3.41,3.41,0,0,1-.44,1.74,3.62,3.62,0,0,1-1.2,1.26,3,3,0,0,1-1.65.47h-2.83v4.29Zm1.73-6h2.8a1.36,1.36,0,0,0,.78-.24,2,2,0,0,0,.57-.66,2,2,0,0,0,0-1.8,1.87,1.87,0,0,0-.57-.64,1.36,1.36,0,0,0-.78-.24h-2.8Z"/><path class="cls-2" d="M126.61,116.12l4.34-11.2h1.76l4.3,11.2h-1.84l-2.56-6.76q0-.1-.18-.54c-.09-.29-.19-.61-.31-1s-.23-.67-.32-1-.16-.48-.19-.57H132l-.23.69c-.09.27-.18.57-.29.88s-.2.6-.29.87-.18.5-.24.68l-2.55,6.69Zm1.92-2.79.64-1.66h5.09l.74,1.66Z"/><path class="cls-2" d="M148.58,116.12v-11.2h1.73v9.53h5.25v1.67Z"/></g></g></svg>