<svg xmlns="http://www.w3.org/2000/svg" viewBox="0 0 846.64 846.64"><defs><style>.cls-1{fill:#fff;}.cls-2{fill:#250735;}.cls-3{fill:#b800d8;}</style></defs><g id="Layer_2" data-name="Layer 2"><g id="Layer_1-2" data-name="Layer 1"><rect class="cls-1" width="846.64" height="846.64"/><path class="cls-2" d="M328.27,394.77V358.24h7.07v36.53Zm4.83,0v-6.28h9.3a12.46,12.46,0,0,0,6.19-1.49,10.39,10.39,0,0,0,4.13-4.18,13.06,13.06,0,0,0,1.48-6.39,12.48,12.48,0,0,0-1.51-6.26,10.71,10.71,0,0,0-4.15-4.16,12.35,12.35,0,0,0-6.14-1.48H333v-6.29h9.56a20.5,20.5,0,0,1,7.51,1.35,18.33,18.33,0,0,1,6,3.82,17.76,17.76,0,0,1,4,5.8,19.4,19.4,0,0,1,0,14.57,17.63,17.63,0,0,1-4,5.82,17.84,17.84,0,0,1-6,3.82,20.34,20.34,0,0,1-7.46,1.35Z"/><path class="cls-2" d="M369.79,365.62A3.69,3.69,0,0,1,367,364.5a4.05,4.05,0,0,1,0-5.53,3.94,3.94,0,0,1,5.54,0,4.14,4.14,0,0,1,0,5.53A3.65,3.65,0,0,1,369.79,365.62Zm-3.43,29.15v-25.1h6.86v25.1Z"/><path class="cls-2" d="M389.43,394.1A11.44,11.44,0,0,1,379.12,388a13.37,13.37,0,0,1-1.54-6.4,13,13,0,0,1,1.54-6.33,11.51,11.51,0,0,1,10.31-6.09,10.78,10.78,0,0,1,5,1.1,8.33,8.33,0,0,1,4.76,7.43v7.9a8.62,8.62,0,0,1-1.38,4.44,8.49,8.49,0,0,1-3.43,3A10.94,10.94,0,0,1,389.43,394.1Zm.31,11.79a16.43,16.43,0,0,1-7.06-1.43,12,12,0,0,1-4.89-4l4.31-4.31a10.64,10.64,0,0,0,3.25,2.62,9.6,9.6,0,0,0,4.34.91,7.4,7.4,0,0,0,5-1.61,5.64,5.64,0,0,0,1.84-4.47v-6.29l1.14-5.51-1.09-5.5v-6.61h6.76v23.8a11.64,11.64,0,0,1-6.55,10.87A15.49,15.49,0,0,1,389.74,405.89Zm1-18a6.29,6.29,0,0,0,3.25-.8,5.72,5.72,0,0,0,2.16-2.23,7.22,7.22,0,0,0,0-6.53,5.8,5.8,0,0,0-2.16-2.21,6.39,6.39,0,0,0-3.25-.8,6.55,6.55,0,0,0-3.27.8,5.66,5.66,0,0,0-2.18,2.24,6.65,6.65,0,0,0-.78,3.25,6.55,6.55,0,0,0,.78,3.19,5.71,5.71,0,0,0,2.18,2.26A6.26,6.26,0,0,0,390.78,387.91Z"/><path class="cls-2" d="M412.76,365.62A3.66,3.66,0,0,1,410,364.5a4.05,4.05,0,0,1,0-5.53,3.92,3.92,0,0,1,5.53,0,4.11,4.11,0,0,1,0,5.53A3.64,3.64,0,0,1,412.76,365.62Zm-3.43,29.15v-25.1h6.86v25.1Z"/><path class="cls-2" d="M420,375.65v-6h18.55v6Zm5.87,19.12V359.23h6.81v35.54Z"/><path class="cls-2" d="M452.31,395.29a11.51,11.51,0,0,1-6.19-1.71,12,12,0,0,1-4.31-4.68,15.06,15.06,0,0,1,0-13.35,12,12,0,0,1,4.31-4.68,11.51,11.51,0,0,1,6.19-1.72,10.41,10.41,0,0,1,4.83,1.1,8.69,8.69,0,0,1,3.4,3,8.53,8.53,0,0,1,1.38,4.39v9a8.52,8.52,0,0,1-1.38,4.42,9.09,9.09,0,0,1-3.4,3A10.3,10.3,0,0,1,452.31,395.29Zm1.25-6.28a6,6,0,0,0,4.62-1.9A6.9,6.9,0,0,0,460,382.2a7.39,7.39,0,0,0-.81-3.51,6,6,0,0,0-2.23-2.39,6.42,6.42,0,0,0-3.35-.86,6.29,6.29,0,0,0-3.3.86,5.94,5.94,0,0,0-2.24,2.39,7.39,7.39,0,0,0-.81,3.51,7.51,7.51,0,0,0,.81,3.56,5.94,5.94,0,0,0,2.24,2.39A6.29,6.29,0,0,0,453.56,389Zm6,5.76V388l1.09-6.13-1.09-6v-6.19h6.76v25.1Z"/><path class="cls-2" d="M472.37,394.77V357.2h6.8v37.57Z"/><path class="cls-3" d="M244.11,478V405h14.13v73Zm10.39-60.53V405H293v12.46Zm0,30.63V435.52h36.75v12.57Z"/><path class="cls-3" d="M324.58,479a27,27,0,0,1-13.66-3.48,26.42,26.42,0,0,1-9.65-9.45,25.42,25.42,0,0,1-3.58-13.34,25.1,25.1,0,0,1,3.53-13.24,26,26,0,0,1,9.65-9.34,28.63,28.63,0,0,1,27.36,0,26.18,26.18,0,0,1,9.61,9.34,25.19,25.19,0,0,1,3.53,13.24,25.79,25.79,0,0,1-13.14,22.79A27,27,0,0,1,324.58,479Zm-.1-12.67a13.39,13.39,0,0,0,6.8-1.71,11.73,11.73,0,0,0,4.56-4.78,14.76,14.76,0,0,0,1.61-7,14.16,14.16,0,0,0-1.66-7,12.27,12.27,0,0,0-4.57-4.72,13.06,13.06,0,0,0-6.74-1.71,12.86,12.86,0,0,0-6.65,1.71,12.27,12.27,0,0,0-4.57,4.72,14.16,14.16,0,0,0-1.66,7,14.44,14.44,0,0,0,1.66,7,12.23,12.23,0,0,0,4.57,4.78A12.86,12.86,0,0,0,324.48,466.36Z"/><path class="cls-3" d="M360.09,478V427.84h13.6V478Zm13.6-27.72-5.3-3.53q.94-9.24,5.4-14.59t12.88-5.35a17.2,17.2,0,0,1,6.54,1.19,14.5,14.5,0,0,1,5.3,3.9L390,441.65a7.16,7.16,0,0,0-2.75-1.87,10.26,10.26,0,0,0-3.69-.62,9.64,9.64,0,0,0-7.11,2.75Q373.7,444.66,373.69,450.27Z"/><path class="cls-3" d="M425.91,479a28.53,28.53,0,0,1-14-3.38,26.08,26.08,0,0,1-.31-45.47A26.24,26.24,0,0,1,425,426.7,24.8,24.8,0,0,1,437.8,430a23.45,23.45,0,0,1,8.72,8.93,27.11,27.11,0,0,1,3,15.57,27.83,27.83,0,0,1-.58,3.17l-42.15.1V447.57l35.82-.11-5.5,4.26a20,20,0,0,0-1.61-7.47,10.49,10.49,0,0,0-4-4.63A12.32,12.32,0,0,0,425,438a13.42,13.42,0,0,0-7.06,1.82,11.94,11.94,0,0,0-4.62,5.09,19.35,19.35,0,0,0,.1,15.68,12.18,12.18,0,0,0,4.93,5.19,15,15,0,0,0,7.48,1.82,18.06,18.06,0,0,0,7-1.3,14.67,14.67,0,0,0,5.4-3.9l8,8a23.23,23.23,0,0,1-8.88,6.44A29.34,29.34,0,0,1,425.91,479Z"/><path class="cls-3" d="M458.1,478V427.84h13.6V478Zm33.74,0V449.23a9.6,9.6,0,0,0-10.07-10.07,10.65,10.65,0,0,0-5.19,1.24,9,9,0,0,0-3.58,3.53,10.52,10.52,0,0,0-1.3,5.3l-5.3-2.7A20.26,20.26,0,0,1,469,436.2a18,18,0,0,1,7.06-6.91,20.83,20.83,0,0,1,10.23-2.49,18.15,18.15,0,0,1,9.86,2.75,20,20,0,0,1,6.85,7.17,19,19,0,0,1,2.5,9.5V478Z"/><path class="cls-3" d="M533.69,479.13a31.67,31.67,0,0,1-15.89-4.31,23.43,23.43,0,0,1-5.92-4.93l8.1-8.2a16.82,16.82,0,0,0,6,4.36,19.22,19.22,0,0,0,7.58,1.45,10.81,10.81,0,0,0,5-.93,3,3,0,0,0,1.71-2.81,3.63,3.63,0,0,0-1.81-3.22,17.58,17.58,0,0,0-4.73-1.92c-1.94-.52-4-1.1-6.07-1.76a32,32,0,0,1-6.08-2.6,12.93,12.93,0,0,1-4.72-4.46,13.64,13.64,0,0,1-1.82-7.42,14.68,14.68,0,0,1,2.34-8.31,15.35,15.35,0,0,1,6.69-5.5,24.71,24.71,0,0,1,10.28-2,28.14,28.14,0,0,1,11.27,2.18,20.86,20.86,0,0,1,8.36,6.54l-8.2,8.21a13.82,13.82,0,0,0-5.14-4,15.34,15.34,0,0,0-6.18-1.25,9.22,9.22,0,0,0-4.62.94,2.86,2.86,0,0,0-1.61,2.59,3.2,3.2,0,0,0,1.81,2.91,20,20,0,0,0,4.73,1.81q2.91.78,6.07,1.77a26.6,26.6,0,0,1,6,2.75,14.4,14.4,0,0,1,4.68,4.67,14,14,0,0,1,1.81,7.48,14.26,14.26,0,0,1-5.29,11.68Q542.83,479.14,533.69,479.13Z"/><rect class="cls-3" x="562.55" y="427.84" width="13.71" height="50.15"/><path class="cls-3" d="M612,479a27.84,27.84,0,0,1-13.81-3.43,26.38,26.38,0,0,1-9.66-36,25.84,25.84,0,0,1,9.71-9.39A27.56,27.56,0,0,1,612,426.7a26.8,26.8,0,0,1,10.9,2.18,24.86,24.86,0,0,1,8.62,6.23l-8.72,8.82a13.14,13.14,0,0,0-4.73-3.32,15.7,15.7,0,0,0-6.07-1.14,13.17,13.17,0,0,0-6.7,1.71,12.61,12.61,0,0,0-4.67,4.67,13.79,13.79,0,0,0-1.71,7,14.13,14.13,0,0,0,1.71,7,12.47,12.47,0,0,0,4.67,4.78,13.17,13.17,0,0,0,6.7,1.71,15.43,15.43,0,0,0,6.17-1.19,13.11,13.11,0,0,0,4.73-3.48l8.83,8.82a26.51,26.51,0,0,1-8.83,6.34A27,27,0,0,1,612,479Z"/><path class="cls-3" d="M553.64,301.66a33.38,33.38,0,0,1,12.55,4,31.38,31.38,0,0,1,9.56,8.25l.28-.07,3.49-.87,26-6.51a45.86,45.86,0,0,0-69-3l3-.74A39.48,39.48,0,0,1,553.64,301.66Z"/><path class="cls-3" d="M552.39,355.08a22.48,22.48,0,0,0,9.73-4.93,16.68,16.68,0,0,0,5.09-8.57,23.13,23.13,0,0,0-.28-11.29,22.34,22.34,0,0,0-5.09-10,17.52,17.52,0,0,0-8.53-5.11,21.84,21.84,0,0,0-10.87.18L531,318.24l10,39.7Z"/><path class="cls-3" d="M594.71,373.61a46,46,0,0,0,19.22-26.27l-24.28,6.08Z"/><path class="cls-3" d="M586.46,340.69l29.09-7.29A45.93,45.93,0,0,0,614.2,324a44.94,44.94,0,0,0-1.85-5.72l-29.64,7.43Z"/><path class="cls-3" d="M568.84,361.92a38.46,38.46,0,0,1-12.9,5.78l-11.79,2.95-2.67.67a45.74,45.74,0,0,0,39,8.41l-5.78-23.06A35,35,0,0,1,568.84,361.92Z"/><path class="cls-2" d="M553.55,270.74A66.4,66.4,0,1,0,634.11,319,66.47,66.47,0,0,0,553.55,270.74ZM584.18,393a59.58,59.58,0,0,1-69.83-79.92c.62-1.56,1.3-3.08,2.06-4.56A59.6,59.6,0,1,1,584.18,393Z"/><rect class="cls-2" x="519.9" y="380.85" width="10.67" height="27.5" rx="5.34" transform="translate(700.72 1027.68) rotate(-142.41)"/><polygon class="cls-2" points="208.59 515.12 208.59 326.22 479.66 326.22 479.66 319.33 201.7 319.33 201.7 522.01 227.16 522.01 227.16 515.12 208.59 515.12"/><polygon class="cls-2" points="664.17 515.12 334.94 515.12 334.94 522.01 671.06 522.01 671.06 342.19 664.17 342.19 664.17 515.12"/><path class="cls-2" d="M261.57,538.65a16.85,16.85,0,0,1-8.46-2.09,15.4,15.4,0,0,1-5.82-5.76,16.27,16.27,0,0,1-2.12-8.32V497.75H253v25a9.14,9.14,0,0,0,1.12,4.64,7.74,7.74,0,0,0,3.09,3,9.25,9.25,0,0,0,4.39,1.06,8.82,8.82,0,0,0,4.36-1.06,7.89,7.89,0,0,0,3-3,9.12,9.12,0,0,0,1.11-4.59v-25h7.86v24.78a16.08,16.08,0,0,1-2.12,8.29,15.55,15.55,0,0,1-5.76,5.74A16.65,16.65,0,0,1,261.57,538.65Z"/><path class="cls-2" d="M285.61,538.08V497.75h7.8v40.33Zm24.38,0L292.49,517l17-19.28h9.76l-19,20.94v-3.61l19.62,23Z"/></g></g></svg>