<svg xmlns="http://www.w3.org/2000/svg" viewBox="0 0 846.64 846.64"><defs><style>.cls-1{fill:#250735;}.cls-2{fill:#fff;}</style></defs><g id="Layer_2" data-name="Layer 2"><g id="Layer_1-2" data-name="Layer 1"><rect class="cls-1" width="846.64" height="846.64"/><path class="cls-2" d="M299.89,399.08V362.55H307v36.53Zm4.83,0v-6.29H314a12.45,12.45,0,0,0,6.18-1.48,10.45,10.45,0,0,0,4.13-4.18,13.06,13.06,0,0,0,1.48-6.39,12.62,12.62,0,0,0-1.5-6.27,10.71,10.71,0,0,0-4.16-4.15,12.33,12.33,0,0,0-6.13-1.48h-9.46v-6.29h9.56a20.5,20.5,0,0,1,7.51,1.35,18.17,18.17,0,0,1,6,3.82,17.72,17.72,0,0,1,4,5.79,19.3,19.3,0,0,1,0,14.58,17.65,17.65,0,0,1-10,9.64,20.3,20.3,0,0,1-7.46,1.35Z"/><path class="cls-2" d="M341.41,369.93a3.69,3.69,0,0,1-2.75-1.12,4,4,0,0,1,0-5.53,3.9,3.9,0,0,1,5.53,0,4.11,4.11,0,0,1,0,5.53A3.69,3.69,0,0,1,341.41,369.93ZM338,399.08V374h6.86v25.1Z"/><path class="cls-2" d="M361.05,398.4a11.39,11.39,0,0,1-10.31-6.13,13.29,13.29,0,0,1-1.53-6.39,13,13,0,0,1,1.53-6.34,11.52,11.52,0,0,1,10.31-6.08,10.85,10.85,0,0,1,5,1.09,8.67,8.67,0,0,1,3.4,3,8.58,8.58,0,0,1,1.35,4.44v7.9a8.62,8.62,0,0,1-1.38,4.44,8.52,8.52,0,0,1-3.43,3A10.91,10.91,0,0,1,361.05,398.4Zm.32,11.8a16.59,16.59,0,0,1-7.07-1.43,12.06,12.06,0,0,1-4.89-4l4.32-4.31a10.46,10.46,0,0,0,3.24,2.62,9.49,9.49,0,0,0,4.34.91,7.38,7.38,0,0,0,5-1.61,5.61,5.61,0,0,0,1.84-4.47v-6.29l1.15-5.5-1.1-5.51V374H375v23.8a12,12,0,0,1-1.74,6.52,11.9,11.9,0,0,1-4.81,4.34A15.35,15.35,0,0,1,361.37,410.2Zm1-18a6.3,6.3,0,0,0,3.25-.81,5.65,5.65,0,0,0,2.16-2.23,6.68,6.68,0,0,0,.78-3.25,6.59,6.59,0,0,0-.78-3.27,5.73,5.73,0,0,0-2.16-2.21,6.3,6.3,0,0,0-3.25-.81,6.45,6.45,0,0,0-3.27.81,5.63,5.63,0,0,0-2.18,2.23,6.7,6.7,0,0,0-.78,3.25,6.59,6.59,0,0,0,.78,3.2,5.84,5.84,0,0,0,2.18,2.26A6.36,6.36,0,0,0,362.4,392.22Z"/><path class="cls-2" d="M384.38,369.93a3.72,3.72,0,0,1-2.75-1.12,4.05,4.05,0,0,1,0-5.53,3.63,3.63,0,0,1,2.75-1.15,3.59,3.59,0,0,1,2.78,1.15,4.11,4.11,0,0,1,0,5.53A3.68,3.68,0,0,1,384.38,369.93ZM381,399.08V374h6.85v25.1Z"/><path class="cls-2" d="M391.66,380v-6h18.55v6Zm5.87,19.12V363.53h6.81v35.55Z"/><path class="cls-2" d="M423.93,399.6a11.37,11.37,0,0,1-6.18-1.72,11.94,11.94,0,0,1-4.32-4.67,15.08,15.08,0,0,1,0-13.36,11.94,11.94,0,0,1,4.32-4.67,11.37,11.37,0,0,1,6.18-1.72,10.41,10.41,0,0,1,4.83,1.09,8.79,8.79,0,0,1,3.41,3,8.61,8.61,0,0,1,1.37,4.39v9a8.54,8.54,0,0,1-1.37,4.42,9,9,0,0,1-3.41,3A10.18,10.18,0,0,1,423.93,399.6Zm1.25-6.29a6,6,0,0,0,4.62-1.9,6.9,6.9,0,0,0,1.77-4.91,7.38,7.38,0,0,0-.81-3.5,5.94,5.94,0,0,0-2.23-2.4,6.42,6.42,0,0,0-3.35-.85,6.29,6.29,0,0,0-3.3.85,6,6,0,0,0-2.24,2.4,7.37,7.37,0,0,0-.8,3.5,7.51,7.51,0,0,0,.8,3.56,5.88,5.88,0,0,0,2.24,2.39A6.29,6.29,0,0,0,425.18,393.31Zm6,5.77v-6.76l1.1-6.13-1.1-6V374H438v25.1Z"/><path class="cls-2" d="M444,399.08V361.51h6.8v37.57Z"/><path class="cls-2" d="M215.73,482.29v-73h14.13v73Zm10.39-60.53V409.3h38.52v12.46Zm0,30.63V439.83h36.75v12.56Z"/><path class="cls-2" d="M296.2,483.33a27,27,0,0,1-13.65-3.48,26.42,26.42,0,0,1-9.66-9.44,26.64,26.64,0,0,1-.05-26.59,26,26,0,0,1,9.66-9.34,28.61,28.61,0,0,1,27.35,0,26.26,26.26,0,0,1,9.61,9.34A25.22,25.22,0,0,1,323,457.06a25.77,25.77,0,0,1-3.53,13.35,26.06,26.06,0,0,1-9.61,9.44A26.94,26.94,0,0,1,296.2,483.33Zm-.1-12.67a13.34,13.34,0,0,0,6.8-1.71,11.73,11.73,0,0,0,4.57-4.77,14.92,14.92,0,0,0,1.61-7,14.15,14.15,0,0,0-1.67-7,12.27,12.27,0,0,0-4.56-4.73,13.08,13.08,0,0,0-6.75-1.71,12.86,12.86,0,0,0-6.65,1.71,12.3,12.3,0,0,0-4.57,4.73,14.15,14.15,0,0,0-1.66,7,14.48,14.48,0,0,0,1.66,7,12.13,12.13,0,0,0,4.57,4.77A12.86,12.86,0,0,0,296.1,470.66Z"/><path class="cls-2" d="M331.71,482.29V432.14h13.6v50.15Zm13.6-27.72L340,451q.94-9.24,5.41-14.59t12.87-5.34a17,17,0,0,1,6.54,1.19,14.47,14.47,0,0,1,5.3,3.89L361.61,446a7.28,7.28,0,0,0-2.75-1.87,10.25,10.25,0,0,0-3.68-.62,9.66,9.66,0,0,0-7.12,2.75C346.23,448.05,345.31,450.83,345.31,454.57Z"/><path class="cls-2" d="M397.54,483.33a28.57,28.57,0,0,1-14-3.37,26.55,26.55,0,0,1-9.81-36.14,25.87,25.87,0,0,1,9.5-9.34A26.27,26.27,0,0,1,396.6,431a24.83,24.83,0,0,1,12.83,3.27,23.59,23.59,0,0,1,8.72,8.93A25.81,25.81,0,0,1,421.31,456a26.09,26.09,0,0,1-.15,2.76,29.83,29.83,0,0,1-.57,3.16l-42.16.1V451.87l35.82-.1-5.5,4.25a20,20,0,0,0-1.61-7.47,10.29,10.29,0,0,0-4.05-4.62,12.21,12.21,0,0,0-6.49-1.61,13.42,13.42,0,0,0-7.06,1.82,11.91,11.91,0,0,0-4.62,5.08,19.35,19.35,0,0,0,.1,15.68,12.14,12.14,0,0,0,4.94,5.19,14.82,14.82,0,0,0,7.47,1.82,17.87,17.87,0,0,0,7-1.3,14.56,14.56,0,0,0,5.4-3.89l8,8a23.17,23.17,0,0,1-8.87,6.44A29.23,29.23,0,0,1,397.54,483.33Z"/><path class="cls-2" d="M429.72,482.29V432.14h13.6v50.15Zm33.74,0V453.53a9.6,9.6,0,0,0-10.07-10.07,10.65,10.65,0,0,0-5.19,1.25,8.94,8.94,0,0,0-3.58,3.53,10.48,10.48,0,0,0-1.3,5.29l-5.29-2.7a20.31,20.31,0,0,1,2.54-10.33,18.08,18.08,0,0,1,7.06-6.9,20.72,20.72,0,0,1,10.23-2.49,18.11,18.11,0,0,1,9.86,2.74,20,20,0,0,1,6.85,7.17,18.92,18.92,0,0,1,2.5,9.5v31.77Z"/><path class="cls-2" d="M505.31,483.43a31.67,31.67,0,0,1-15.89-4.31,23.39,23.39,0,0,1-5.92-4.93l8.1-8.2a16.77,16.77,0,0,0,6,4.36,19.17,19.17,0,0,0,7.57,1.45,10.69,10.69,0,0,0,5-.93,3,3,0,0,0,1.71-2.8,3.59,3.59,0,0,0-1.81-3.22,17.44,17.44,0,0,0-4.73-1.92q-2.91-.78-6.07-1.77a32.22,32.22,0,0,1-6.08-2.59,13,13,0,0,1-4.72-4.47,13.61,13.61,0,0,1-1.82-7.42,14.72,14.72,0,0,1,2.34-8.31,15.38,15.38,0,0,1,6.7-5.5,24.63,24.63,0,0,1,10.27-2,28.14,28.14,0,0,1,11.27,2.18,20.62,20.62,0,0,1,8.36,6.54l-8.2,8.2a13.82,13.82,0,0,0-5.14-4.05,15.33,15.33,0,0,0-6.18-1.24,9.33,9.33,0,0,0-4.62.93,2.87,2.87,0,0,0-1.61,2.6,3.19,3.19,0,0,0,1.82,2.9,19.73,19.73,0,0,0,4.72,1.82q2.91.78,6.07,1.77a26.43,26.43,0,0,1,6,2.75,14.37,14.37,0,0,1,4.67,4.67,13.91,13.91,0,0,1,1.81,7.47,14.25,14.25,0,0,1-5.29,11.68Q514.45,483.44,505.31,483.43Z"/><rect class="cls-2" x="534.17" y="432.14" width="13.71" height="50.15"/><path class="cls-2" d="M583.59,483.33a27.74,27.74,0,0,1-13.81-3.43,26.39,26.39,0,0,1-9.66-36,25.86,25.86,0,0,1,9.71-9.4A27.56,27.56,0,0,1,583.59,431a26.93,26.93,0,0,1,10.9,2.18,24.9,24.9,0,0,1,8.62,6.23l-8.72,8.83a13.08,13.08,0,0,0-4.73-3.33,15.7,15.7,0,0,0-6.07-1.14,13.17,13.17,0,0,0-6.7,1.71,12.71,12.71,0,0,0-4.67,4.68,13.75,13.75,0,0,0-1.71,7,14.17,14.17,0,0,0,1.71,7,12.38,12.38,0,0,0,4.67,4.77,13.17,13.17,0,0,0,6.7,1.71,15.34,15.34,0,0,0,6.18-1.19,12.93,12.93,0,0,0,4.72-3.48l8.83,8.83a26.24,26.24,0,0,1-8.83,6.33A26.76,26.76,0,0,1,583.59,483.33Z"/><path class="cls-2" d="M525.26,306a33.2,33.2,0,0,1,12.55,4,31,31,0,0,1,9.56,8.25l.28-.07,3.49-.88,26-6.51a45.88,45.88,0,0,0-69-3l3-.74A39.25,39.25,0,0,1,525.26,306Z"/><path class="cls-2" d="M524,359.38a22.37,22.37,0,0,0,9.73-4.93,16.72,16.72,0,0,0,5.1-8.57,23.22,23.22,0,0,0-.29-11.28,22.28,22.28,0,0,0-5.09-10,17.46,17.46,0,0,0-8.52-5.11,21.61,21.61,0,0,0-10.87.18l-11.43,2.86,10,39.7Z"/><path class="cls-2" d="M566.33,377.92a46,46,0,0,0,19.22-26.28l-24.28,6.08Z"/><path class="cls-2" d="M558.09,345l29.08-7.28a45.74,45.74,0,0,0-1.35-9.41,45.09,45.09,0,0,0-1.85-5.73L554.33,330Z"/><path class="cls-2" d="M540.46,366.23A38.49,38.49,0,0,1,527.57,372l-11.79,3-2.68.67a45.8,45.8,0,0,0,39,8.41L546.36,361A35.12,35.12,0,0,1,540.46,366.23Z"/><path class="cls-2" d="M525.17,275a66.4,66.4,0,1,0,80.56,48.27A66.49,66.49,0,0,0,525.17,275ZM555.8,397.29A59.58,59.58,0,0,1,486,317.36c.63-1.55,1.31-3.07,2.06-4.56a59.61,59.61,0,1,1,67.77,84.49Z"/><rect class="cls-2" x="491.52" y="385.15" width="10.67" height="27.5" rx="5.34" transform="translate(647.23 1018.08) rotate(-142.41)"/><polygon class="cls-2" points="180.21 519.43 180.21 330.52 451.28 330.52 451.28 323.64 173.32 323.64 173.32 526.32 198.78 526.32 198.78 519.43 180.21 519.43"/><polygon class="cls-2" points="635.79 519.43 306.56 519.43 306.56 526.32 642.68 526.32 642.68 346.5 635.79 346.5 635.79 519.43"/><path class="cls-2" d="M233.2,543a16.87,16.87,0,0,1-8.47-2.1,15.33,15.33,0,0,1-5.82-5.76,16.37,16.37,0,0,1-2.12-8.32V502.06h7.8V527a9.15,9.15,0,0,0,1.12,4.65,7.68,7.68,0,0,0,3.1,3,9.11,9.11,0,0,0,4.39,1.06,8.77,8.77,0,0,0,4.36-1.06,7.91,7.91,0,0,0,3-3,9.13,9.13,0,0,0,1.12-4.59v-25h7.86v24.78a16.12,16.12,0,0,1-2.13,8.29,15.38,15.38,0,0,1-5.76,5.73A16.64,16.64,0,0,1,233.2,543Z"/><path class="cls-2" d="M257.23,542.39V502.06H265v40.33Zm24.38,0-17.49-21.06,17-19.27h9.75l-19,20.94v-3.62l19.62,23Z"/></g></g></svg>