<svg xmlns="http://www.w3.org/2000/svg" viewBox="0 0 859.91 859.91"><defs><style>.cls-1{fill:#fff;}.cls-2{fill:#b800d8;}.cls-3{fill:#250735;}</style></defs><g id="Layer_2" data-name="Layer 2"><g id="Layer_1-2" data-name="Layer 1"><rect class="cls-1" width="859.91" height="859.91"/><path class="cls-2" d="M339,213.22a41.28,41.28,0,0,1,15.52,4.94,38.66,38.66,0,0,1,11.82,10.2l.34-.09,4.32-1.08,32.13-8.05a56.72,56.72,0,0,0-85.31-3.7l3.66-.92A48.67,48.67,0,0,1,339,213.22Z"/><path class="cls-2" d="M337.46,279.26a27.45,27.45,0,0,0,12-6.1,20.66,20.66,0,0,0,6.31-10.59,28.78,28.78,0,0,0-.35-14,27.73,27.73,0,0,0-6.3-12.34A21.68,21.68,0,0,0,338.6,230a26.82,26.82,0,0,0-13.44.22L311,233.72l12.3,49.08Z"/><path class="cls-2" d="M389.79,302.18a56.94,56.94,0,0,0,23.75-32.49l-30,7.52Z"/><path class="cls-2" d="M379.59,261.47l36-9a56.45,56.45,0,0,0-1.67-11.63,57.93,57.93,0,0,0-2.28-7.08l-36.66,9.18Z"/><path class="cls-2" d="M357.79,287.72a47.32,47.32,0,0,1-15.94,7.14l-14.58,3.66-3.31.82a56.61,56.61,0,0,0,48.27,10.4l-7.15-28.51A43,43,0,0,1,357.79,287.72Z"/><rect class="cls-3" x="296.59" y="310.88" width="13.2" height="36.31" rx="6.6" transform="translate(342.71 774.71) rotate(-142.41)"/><path class="cls-3" d="M338.89,175a82.1,82.1,0,1,0,99.6,59.68A82.19,82.19,0,0,0,338.89,175Zm37.87,151.14a73.67,73.67,0,0,1-86.34-98.81c.78-1.92,1.62-3.81,2.55-5.64a73.69,73.69,0,1,1,83.79,104.45Z"/><path class="cls-3" d="M206.52,438.82V379.88h9.68v58.94Zm6.65,0V430h15.49a21.15,21.15,0,0,0,10.65-2.61,18.43,18.43,0,0,0,7.16-7.28A22.05,22.05,0,0,0,249,409.27a21.42,21.42,0,0,0-2.61-10.7,18.83,18.83,0,0,0-7.2-7.24,21,21,0,0,0-10.57-2.61H213.17v-8.84h15.75a31.08,31.08,0,0,1,11.87,2.23,29.12,29.12,0,0,1,9.56,6.23,28.62,28.62,0,0,1,6.36,9.35,31,31,0,0,1,0,23.28,28.7,28.7,0,0,1-15.84,15.63,31.08,31.08,0,0,1-11.79,2.22Z"/><path class="cls-3" d="M282.31,438.82V379.88H292v58.94Z"/><path class="cls-3" d="M344.87,439.66a28.19,28.19,0,0,1-11.44-2.35,29.31,29.31,0,0,1-9.44-6.53,30.56,30.56,0,0,1-6.35-9.69,31.19,31.19,0,0,1,0-23.61,30.44,30.44,0,0,1,6.39-9.64,29,29,0,0,1,9.6-6.49A30.55,30.55,0,0,1,345.55,379a31.15,31.15,0,0,1,13,2.69,27.19,27.19,0,0,1,10,7.66L362,396a16.9,16.9,0,0,0-7-5.68,22.61,22.61,0,0,0-9.43-2A21,21,0,0,0,334.9,391a18.3,18.3,0,0,0-7.12,7.37,24.87,24.87,0,0,0,0,21.94,19.43,19.43,0,0,0,6.95,7.45,18.54,18.54,0,0,0,9.94,2.69,22.32,22.32,0,0,0,10.15-2.14,14.88,14.88,0,0,0,6.52-6.4,22,22,0,0,0,2.28-10.49l6.06,4.38H344.54v-8.84h29.13v1.35q0,10.51-3.74,17.51a24.64,24.64,0,0,1-10.23,10.45A31.11,31.11,0,0,1,344.87,439.66Z"/><path class="cls-3" d="M396.75,438.82V379.88h9.69v58.94Z"/><path class="cls-3" d="M428.33,388.72v-8.84h48.08v8.84Zm19.2,50.1V381.56h9.68v57.26Z"/><path class="cls-3" d="M485.85,438.82l24.25-58.94h6.73l24.09,58.94H530.48l-18.87-47.74h3.54l-19,47.74Zm11.95-11.36V419H529v8.42Z"/><path class="cls-3" d="M562.14,438.82V379.88h9.69v58.94Zm6.65,0V430h30.82v8.84Z"/><path class="cls-2" d="M206.52,539.88V480.93h9.68v58.95Zm6.65-50.11v-8.84h31.41v8.84Zm0,24.85v-8.85h30v8.85Z"/><path class="cls-2" d="M293.93,540.72a29.48,29.48,0,0,1-11.79-2.35,30.3,30.3,0,0,1-18.36-28.05,29.84,29.84,0,0,1,2.32-11.79,30.73,30.73,0,0,1,6.39-9.64A29.44,29.44,0,0,1,282,482.4a30,30,0,0,1,33.06,6.49,30.48,30.48,0,0,1-9.47,49.48A29.08,29.08,0,0,1,293.93,540.72Zm-.17-9.26a20.05,20.05,0,0,0,10.49-2.7,19,19,0,0,0,7.07-7.45,22.78,22.78,0,0,0,2.57-11,23.41,23.41,0,0,0-1.48-8.46,19.55,19.55,0,0,0-4.17-6.65,18.4,18.4,0,0,0-6.35-4.35,21.1,21.1,0,0,0-8.13-1.51,20.09,20.09,0,0,0-10.4,2.66,18.78,18.78,0,0,0-7.07,7.37,22.53,22.53,0,0,0-2.57,10.94,24.14,24.14,0,0,0,1.47,8.55,19.42,19.42,0,0,0,4.13,6.69,18.68,18.68,0,0,0,6.36,4.34A20.56,20.56,0,0,0,293.76,531.46Z"/><path class="cls-2" d="M347.14,539.88V480.93h9.69v58.95Zm6.66-25v-8h14.91a9.77,9.77,0,0,0,6.94-2.32,8.34,8.34,0,0,0,2.49-6.44,8.64,8.64,0,0,0-2.44-6.23,9.16,9.16,0,0,0-6.91-2.53h-15v-8.42h15.41a20.65,20.65,0,0,1,9.77,2.23,16.14,16.14,0,0,1,8.84,14.78,16.91,16.91,0,0,1-2.31,8.93,15.76,15.76,0,0,1-6.53,5.89,21.62,21.62,0,0,1-9.77,2.11Zm25.69,25-20.64-25.6,9-3.28,23.82,28.88Z"/><path class="cls-2" d="M412.32,539.88V480.93H422v58.95ZM419,489.77v-8.84h32.59v8.84ZM419,514v-8.5h30.15V514Zm0,25.86V531h33v8.84Z"/><path class="cls-2" d="M475.48,539.88V480.93h6.75l2.94,11.12v47.83Zm40.85,0L481,493.82l1.19-12.89L517.51,527Zm0,0-3-10.36V480.93h9.69v58.95Z"/><path class="cls-2" d="M564.58,540.72a25.59,25.59,0,0,1-11.88-2.53,27,27,0,0,1-8.75-7.41l6.57-6.57a18.44,18.44,0,0,0,5.81,5.52,16.78,16.78,0,0,0,8.59,2,13.36,13.36,0,0,0,7.78-2,6.4,6.4,0,0,0,2.92-5.56,7.29,7.29,0,0,0-1.53-4.8,11.58,11.58,0,0,0-4-3.07,41.68,41.68,0,0,0-5.48-2.2q-3-1-6-2.18a25,25,0,0,1-5.47-3.08,13.6,13.6,0,0,1-4-4.79,16.38,16.38,0,0,1-1.51-7.5,15.13,15.13,0,0,1,2.56-8.89,16.49,16.49,0,0,1,6.95-5.6,23.93,23.93,0,0,1,9.77-1.93,23.2,23.2,0,0,1,10.4,2.27,21.77,21.77,0,0,1,7.45,5.82l-6.57,6.56a17.9,17.9,0,0,0-5.26-4.25,13.74,13.74,0,0,0-6.27-1.39,11.7,11.7,0,0,0-6.86,1.76,5.76,5.76,0,0,0-2.49,5,6.1,6.1,0,0,0,1.52,4.34,12.16,12.16,0,0,0,4,2.78,56.51,56.51,0,0,0,5.48,2.15c2,.67,4,1.43,6,2.27a23.6,23.6,0,0,1,5.48,3.25,14.51,14.51,0,0,1,4,5.09,17.88,17.88,0,0,1,1.52,7.83,15.44,15.44,0,0,1-5.6,12.55Q574.09,540.72,564.58,540.72Z"/><path class="cls-2" d="M608.45,539.88V480.93h9.69v58.95Z"/><path class="cls-2" d="M671.19,540.72a30.06,30.06,0,0,1-11.82-2.31,28.75,28.75,0,0,1-9.48-6.49,29.42,29.42,0,0,1-6.23-9.68,33.07,33.07,0,0,1,0-23.67,28.84,28.84,0,0,1,6.23-9.64,29.68,29.68,0,0,1,9.48-6.49,29.38,29.38,0,0,1,11.82-2.35,30,30,0,0,1,12.39,2.35,31.23,31.23,0,0,1,9.26,6.41l-6.57,6.56a18,18,0,0,0-6.36-4.45,22,22,0,0,0-8.72-1.61,20.46,20.46,0,0,0-8,1.51,18.13,18.13,0,0,0-6.28,4.35,19.48,19.48,0,0,0-4.08,6.69,26,26,0,0,0,0,17,19.48,19.48,0,0,0,4.08,6.69,18,18,0,0,0,6.28,4.34,20.28,20.28,0,0,0,8,1.52,22.59,22.59,0,0,0,9.14-1.65,18.46,18.46,0,0,0,6.36-4.5l6.57,6.57a29.63,29.63,0,0,1-9.52,6.49A31.49,31.49,0,0,1,671.19,540.72Z"/><path class="cls-2" d="M229.25,641.77a23.61,23.61,0,0,1-11.95-3,22.4,22.4,0,0,1-8.38-8.3,23.19,23.19,0,0,1-3.08-11.92V582h9.69v36.47a14.71,14.71,0,0,0,1.81,7.45,12.61,12.61,0,0,0,4.92,4.88,14.1,14.1,0,0,0,7,1.73,13.78,13.78,0,0,0,7-1.73,12.52,12.52,0,0,0,4.8-4.88,14.83,14.83,0,0,0,1.77-7.37V582h9.68v36.63a23.23,23.23,0,0,1-3,11.88,22.32,22.32,0,0,1-8.25,8.26A23.39,23.39,0,0,1,229.25,641.77Z"/><path class="cls-2" d="M278.1,640.93V582h9.68v58.95Zm35.62,0-27.29-30.74L313.13,582h12.38L296,612.63v-5.3l30.32,33.6Z"/></g></g></svg>