<svg xmlns="http://www.w3.org/2000/svg" viewBox="0 0 846.64 846.64"><defs><style>.cls-1{fill:#250735;}.cls-2{fill:#fff;}</style></defs><g id="Layer_2" data-name="Layer 2"><g id="Layer_1-2" data-name="Layer 1"><rect class="cls-1" width="846.64" height="846.64"/><path class="cls-2" d="M320.17,189.75a41.35,41.35,0,0,1,15.52,4.95,38.62,38.62,0,0,1,11.81,10.2l.35-.09,4.31-1.08,32.13-8A56.72,56.72,0,0,0,299,192l3.65-.91A48.75,48.75,0,0,1,320.17,189.75Z"/><path class="cls-2" d="M318.62,255.8a27.65,27.65,0,0,0,12-6.1,20.57,20.57,0,0,0,6.3-10.6,28.62,28.62,0,0,0-.35-13.95,27.48,27.48,0,0,0-6.3-12.34,21.56,21.56,0,0,0-10.54-6.31,26.82,26.82,0,0,0-13.44.22l-14.12,3.54,12.3,49.08Z"/><path class="cls-2" d="M371,278.71a56.91,56.91,0,0,0,23.76-32.48l-30,7.52Z"/><path class="cls-2" d="M360.75,238l36-9a56.16,56.16,0,0,0-3.95-18.72l-36.65,9.19Z"/><path class="cls-2" d="M339,264.26A47.41,47.41,0,0,1,323,271.4l-14.58,3.65-3.31.83a56.6,56.6,0,0,0,48.26,10.4l-7.14-28.52A43.38,43.38,0,0,1,339,264.26Z"/><rect class="cls-2" x="277.75" y="287.42" width="13.2" height="36.31" rx="6.6" transform="translate(323.26 721.16) rotate(-142.41)"/><path class="cls-2" d="M320.06,151.52a82.1,82.1,0,1,0,99.6,59.67A82.18,82.18,0,0,0,320.06,151.52Zm37.87,151.14a73.67,73.67,0,0,1-86.34-98.82c.77-1.92,1.61-3.8,2.55-5.63a73.69,73.69,0,1,1,83.79,104.45Z"/><path class="cls-2" d="M187.68,415.36V356.41h9.69v58.95Zm6.65,0v-8.84h15.5a21.17,21.17,0,0,0,10.65-2.61,18.43,18.43,0,0,0,7.16-7.28,22.17,22.17,0,0,0,2.57-10.83,21.51,21.51,0,0,0-2.61-10.69,18.72,18.72,0,0,0-7.21-7.24,20.94,20.94,0,0,0-10.56-2.62h-15.5v-8.84h15.75A31.32,31.32,0,0,1,222,358.64a29.37,29.37,0,0,1,9.55,6.24,28.32,28.32,0,0,1,6.36,9.35,30.85,30.85,0,0,1,0,23.28A28.66,28.66,0,0,1,222,413.13a30.89,30.89,0,0,1-11.79,2.23Z"/><path class="cls-2" d="M263.47,415.36V356.41h9.69v58.95Z"/><path class="cls-2" d="M326,416.2a28.27,28.27,0,0,1-11.45-2.35,29.38,29.38,0,0,1-9.43-6.53,30.87,30.87,0,0,1-6.36-9.69,31.22,31.22,0,0,1,0-23.62,30.75,30.75,0,0,1,6.4-9.64,29,29,0,0,1,9.6-6.49,30.65,30.65,0,0,1,11.91-2.31,31.31,31.31,0,0,1,13,2.69,27.06,27.06,0,0,1,10,7.67l-6.58,6.57a16.75,16.75,0,0,0-7-5.68,22.43,22.43,0,0,0-9.43-2,20.89,20.89,0,0,0-10.65,2.66,18.28,18.28,0,0,0-7.11,7.37,24.85,24.85,0,0,0,0,21.93,19.14,19.14,0,0,0,6.95,7.45,18.49,18.49,0,0,0,9.93,2.7A22.32,22.32,0,0,0,336,404.79a14.85,14.85,0,0,0,6.52-6.39,22,22,0,0,0,2.28-10.49l6.06,4.37H325.7v-8.84h29.14v1.35q0,10.53-3.74,17.52a24.73,24.73,0,0,1-10.23,10.44A31,31,0,0,1,326,416.2Z"/><path class="cls-2" d="M377.91,415.36V356.41h9.69v58.95Z"/><path class="cls-2" d="M409.49,365.25v-8.84h48.09v8.84Zm19.21,50.11V358.1h9.67v57.26Z"/><path class="cls-2" d="M467,415.36l24.25-58.95H498l24.08,58.95H511.64l-18.86-47.75h3.54l-19,47.75ZM479,404v-8.43h31.24V404Z"/><path class="cls-2" d="M543.3,415.36V356.41H553v58.95Zm6.66,0v-8.84h30.82v8.84Z"/><path class="cls-2" d="M187.68,516.42V457.47h9.69v58.95Zm6.65-50.11v-8.84h31.41v8.84Zm0,24.84v-8.84h30v8.84Z"/><path class="cls-2" d="M275.09,517.25a29.43,29.43,0,0,1-11.78-2.35,30.71,30.71,0,0,1-16.05-39.83,30.81,30.81,0,0,1,6.4-9.64,29.24,29.24,0,0,1,9.51-6.49,30,30,0,0,1,33.06,6.49,30.46,30.46,0,0,1-9.47,49.47A29.08,29.08,0,0,1,275.09,517.25Zm-.16-9.26a20,20,0,0,0,10.48-2.69,19.07,19.07,0,0,0,7.07-7.45,22.73,22.73,0,0,0,2.57-11,23.41,23.41,0,0,0-1.47-8.46,20,20,0,0,0-4.17-6.66,18.42,18.42,0,0,0-6.36-4.34,21,21,0,0,0-8.12-1.51,20.25,20.25,0,0,0-10.41,2.65,18.78,18.78,0,0,0-7.07,7.37,22.56,22.56,0,0,0-2.56,10.95,23.86,23.86,0,0,0,1.47,8.54,19.37,19.37,0,0,0,4.13,6.7,18.64,18.64,0,0,0,6.35,4.34A20.64,20.64,0,0,0,274.93,508Z"/><path class="cls-2" d="M328.31,516.42V457.47H338v58.95Zm6.65-25v-8h14.91a9.82,9.82,0,0,0,6.95-2.31,8.38,8.38,0,0,0,2.48-6.44,8.64,8.64,0,0,0-2.44-6.24,9.18,9.18,0,0,0-6.91-2.52H335v-8.42h15.41a20.62,20.62,0,0,1,9.77,2.23,16.36,16.36,0,0,1,6.53,6.06,16.56,16.56,0,0,1,2.31,8.71,16.8,16.8,0,0,1-2.31,8.93,15.66,15.66,0,0,1-6.53,5.9,21.59,21.59,0,0,1-9.77,2.11Zm25.69,25L340,490.81l9-3.28,23.83,28.89Z"/><path class="cls-2" d="M393.49,516.42V457.47h9.69v58.95Zm6.65-50.11v-8.84h32.59v8.84Zm0,24.25v-8.5h30.15v8.5Zm0,25.86v-8.85h33v8.85Z"/><path class="cls-2" d="M456.65,516.42V457.47h6.74l2.95,11.12v47.83Zm40.85,0-35.29-46.07,1.18-12.88,35.28,46.06Zm0,0-3-10.37V457.47h9.69v58.95Z"/><path class="cls-2" d="M545.74,517.25a25.55,25.55,0,0,1-11.87-2.52,27.07,27.07,0,0,1-8.76-7.41l6.57-6.57a18.37,18.37,0,0,0,5.82,5.52,16.71,16.71,0,0,0,8.58,2,13.44,13.44,0,0,0,7.79-2,6.41,6.41,0,0,0,2.91-5.56,7.39,7.39,0,0,0-1.52-4.81,11.63,11.63,0,0,0-4-3.06,40.73,40.73,0,0,0-5.47-2.2q-3-1-6-2.19a24.32,24.32,0,0,1-5.47-3.07,13.66,13.66,0,0,1-4-4.8,16.33,16.33,0,0,1-1.51-7.5,15.08,15.08,0,0,1,2.57-8.88,16.35,16.35,0,0,1,7-5.6,23.86,23.86,0,0,1,9.77-1.93,23.1,23.1,0,0,1,10.4,2.27,21.84,21.84,0,0,1,7.45,5.81l-6.57,6.56a18.23,18.23,0,0,0-5.27-4.25,13.72,13.72,0,0,0-6.27-1.39A11.7,11.7,0,0,0,541,467.4a5.75,5.75,0,0,0-2.48,5,6.13,6.13,0,0,0,1.51,4.34,12.41,12.41,0,0,0,4,2.78c1.66.76,3.48,1.47,5.47,2.15s4,1.43,6,2.27a23.35,23.35,0,0,1,5.48,3.24,14.57,14.57,0,0,1,4,5.1,17.84,17.84,0,0,1,1.51,7.82q0,7.92-5.6,12.55C557.13,515.72,552.09,517.25,545.74,517.25Z"/><path class="cls-2" d="M589.62,516.42V457.47h9.69v58.95Z"/><path class="cls-2" d="M652.36,517.25a29.89,29.89,0,0,1-11.83-2.31,28.66,28.66,0,0,1-9.47-6.49,29.25,29.25,0,0,1-6.24-9.67,33.22,33.22,0,0,1,0-23.67,28.71,28.71,0,0,1,6.24-9.64,29.28,29.28,0,0,1,21.3-8.84A29.92,29.92,0,0,1,664.74,459a31.11,31.11,0,0,1,9.26,6.41L667.43,472a17.85,17.85,0,0,0-6.35-4.46,22,22,0,0,0-8.72-1.6,20.51,20.51,0,0,0-8,1.51,18.16,18.16,0,0,0-6.27,4.34,19.64,19.64,0,0,0-4.09,6.7,26,26,0,0,0,0,17,19.55,19.55,0,0,0,4.09,6.7,18.16,18.16,0,0,0,6.27,4.34,20.51,20.51,0,0,0,8,1.51,22.76,22.76,0,0,0,9.13-1.64,18.26,18.26,0,0,0,6.36-4.51l6.57,6.57a29.28,29.28,0,0,1-9.51,6.49A31.49,31.49,0,0,1,652.36,517.25Z"/><path class="cls-2" d="M210.42,618.31a23.68,23.68,0,0,1-12-3,22.4,22.4,0,0,1-8.38-8.3A23.12,23.12,0,0,1,187,595.07V558.52h9.68V595a14.71,14.71,0,0,0,1.81,7.45,12.7,12.7,0,0,0,4.93,4.88,14.18,14.18,0,0,0,7,1.73,13.88,13.88,0,0,0,7-1.73,12.56,12.56,0,0,0,4.79-4.88,14.73,14.73,0,0,0,1.77-7.37V558.52h9.69v36.63a23.16,23.16,0,0,1-3,11.87,22.32,22.32,0,0,1-8.25,8.26A23.39,23.39,0,0,1,210.42,618.31Z"/><path class="cls-2" d="M259.26,617.47v-59H269v59Zm35.63,0L267.6,586.73l26.69-28.21h12.38L277.2,589.17v-5.3l30.32,33.6Z"/></g></g></svg>