<svg xmlns="http://www.w3.org/2000/svg" viewBox="0 0 846.64 846.64"><defs><style>.cls-1{fill:#250735;}.cls-2{fill:#b800d8;}.cls-3{fill:#fff;}</style></defs><g id="Layer_2" data-name="Layer 2"><g id="Layer_1-2" data-name="Layer 1"><rect class="cls-1" width="846.64" height="846.64"/><path class="cls-2" d="M320.15,189.75a41.29,41.29,0,0,1,15.52,4.95,38.66,38.66,0,0,1,11.82,10.2l.34-.09,4.32-1.08,32.13-8A56.74,56.74,0,0,0,299,192l3.66-.91A48.68,48.68,0,0,1,320.15,189.75Z"/><path class="cls-2" d="M318.61,255.8a27.56,27.56,0,0,0,12-6.1,20.65,20.65,0,0,0,6.31-10.6,28.74,28.74,0,0,0-.35-13.95,27.68,27.68,0,0,0-6.3-12.34,21.61,21.61,0,0,0-10.54-6.31,26.82,26.82,0,0,0-13.44.22l-14.12,3.54,12.3,49.08Z"/><path class="cls-2" d="M370.94,278.71a56.89,56.89,0,0,0,23.75-32.48l-30,7.52Z"/><path class="cls-2" d="M360.74,238l36-9A56.54,56.54,0,0,0,395,217.36a58.5,58.5,0,0,0-2.28-7.08l-36.66,9.19Z"/><path class="cls-2" d="M338.94,264.26A47.32,47.32,0,0,1,323,271.4l-14.58,3.65-3.31.83a56.61,56.61,0,0,0,48.27,10.4l-7.15-28.52A43,43,0,0,1,338.94,264.26Z"/><rect class="cls-3" x="277.74" y="287.42" width="13.2" height="36.31" rx="6.6" transform="translate(323.24 721.15) rotate(-142.41)"/><path class="cls-3" d="M320,151.52a82.1,82.1,0,1,0,99.6,59.67A82.18,82.18,0,0,0,320,151.52Zm37.88,151.14a73.68,73.68,0,0,1-86.35-98.82c.78-1.92,1.62-3.8,2.55-5.63a73.69,73.69,0,1,1,83.8,104.45Z"/><path class="cls-3" d="M187.67,415.36V356.41h9.68v58.95Zm6.65,0v-8.84h15.49a21.15,21.15,0,0,0,10.65-2.61,18.43,18.43,0,0,0,7.16-7.28,22.06,22.06,0,0,0,2.57-10.83,21.4,21.4,0,0,0-2.61-10.69,18.69,18.69,0,0,0-7.2-7.24,21,21,0,0,0-10.57-2.62H194.32v-8.84h15.75a31.27,31.27,0,0,1,11.87,2.23,29.31,29.31,0,0,1,9.56,6.24,28.62,28.62,0,0,1,6.36,9.35,31,31,0,0,1,0,23.28A28.64,28.64,0,0,1,222,413.13a30.89,30.89,0,0,1-11.79,2.23Z"/><path class="cls-3" d="M263.46,415.36V356.41h9.68v58.95Z"/><path class="cls-3" d="M326,416.2a28.19,28.19,0,0,1-11.44-2.35,29.31,29.31,0,0,1-9.44-6.53,30.84,30.84,0,0,1-6.35-9.69,31.22,31.22,0,0,1,0-23.62,30.55,30.55,0,0,1,6.39-9.64,29.15,29.15,0,0,1,9.6-6.49,30.73,30.73,0,0,1,11.92-2.31,31.31,31.31,0,0,1,13,2.69,27.11,27.11,0,0,1,10,7.67l-6.57,6.57a16.75,16.75,0,0,0-7-5.68,22.46,22.46,0,0,0-9.43-2,20.89,20.89,0,0,0-10.65,2.66,18.3,18.3,0,0,0-7.12,7.37,24.85,24.85,0,0,0,0,21.93,19.29,19.29,0,0,0,6.95,7.45,18.55,18.55,0,0,0,9.94,2.7A22.32,22.32,0,0,0,336,404.79a14.91,14.91,0,0,0,6.52-6.39,22,22,0,0,0,2.28-10.49l6.06,4.37H325.69v-8.84h29.13v1.35q0,10.53-3.74,17.52a24.67,24.67,0,0,1-10.23,10.44A31,31,0,0,1,326,416.2Z"/><path class="cls-3" d="M377.9,415.36V356.41h9.69v58.95Z"/><path class="cls-3" d="M409.48,365.25v-8.84h48.08v8.84Zm19.2,50.11V358.1h9.68v57.26Z"/><path class="cls-3" d="M467,415.36l24.25-58.95H498l24.09,58.95H511.63l-18.87-47.75h3.54l-19,47.75ZM479,404v-8.43h31.24V404Z"/><path class="cls-3" d="M543.29,415.36V356.41H553v58.95Zm6.65,0v-8.84h30.82v8.84Z"/><path class="cls-2" d="M187.67,516.42V457.47h9.68v58.95Zm6.65-50.11v-8.84h31.41v8.84Zm0,24.84v-8.84h30v8.84Z"/><path class="cls-2" d="M275.08,517.25a29.48,29.48,0,0,1-11.79-2.35,30.71,30.71,0,0,1-16-39.83,30.47,30.47,0,0,1,6.4-9.64,29.14,29.14,0,0,1,9.51-6.49,30,30,0,0,1,33.06,6.49,30.47,30.47,0,0,1-9.47,49.47A29.08,29.08,0,0,1,275.08,517.25Zm-.17-9.26a20,20,0,0,0,10.49-2.69,19.07,19.07,0,0,0,7.07-7.45,22.84,22.84,0,0,0,2.57-11,23.41,23.41,0,0,0-1.48-8.46,19.69,19.69,0,0,0-4.17-6.66A18.38,18.38,0,0,0,283,467.4a21.1,21.1,0,0,0-8.13-1.51,20.18,20.18,0,0,0-10.4,2.65,18.78,18.78,0,0,0-7.07,7.37,22.57,22.57,0,0,0-2.57,10.95,24.08,24.08,0,0,0,1.47,8.54,19.37,19.37,0,0,0,4.13,6.7,18.68,18.68,0,0,0,6.36,4.34A20.56,20.56,0,0,0,274.91,508Z"/><path class="cls-2" d="M328.29,516.42V457.47H338v58.95Zm6.66-25v-8h14.91a9.81,9.81,0,0,0,6.94-2.31,8.35,8.35,0,0,0,2.49-6.44,8.68,8.68,0,0,0-2.44-6.24,9.19,9.19,0,0,0-6.91-2.52H335v-8.42h15.41a20.65,20.65,0,0,1,9.77,2.23A16.11,16.11,0,0,1,369,474.47a16.89,16.89,0,0,1-2.31,8.93,15.78,15.78,0,0,1-6.53,5.9,21.62,21.62,0,0,1-9.77,2.11Zm25.69,25L340,490.81l9-3.28,23.82,28.89Z"/><path class="cls-2" d="M393.47,516.42V457.47h9.69v58.95Zm6.66-50.11v-8.84h32.59v8.84Zm0,24.25v-8.5h30.15v8.5Zm0,25.86v-8.85h33v8.85Z"/><path class="cls-2" d="M456.63,516.42V457.47h6.75l2.94,11.12v47.83Zm40.85,0-35.29-46.07,1.19-12.88,35.28,46.06Zm0,0-3-10.37V457.47h9.69v58.95Z"/><path class="cls-2" d="M545.73,517.25a25.59,25.59,0,0,1-11.88-2.52,27.14,27.14,0,0,1-8.75-7.41l6.57-6.57a18.44,18.44,0,0,0,5.81,5.52,16.78,16.78,0,0,0,8.59,2,13.49,13.49,0,0,0,7.79-2,6.41,6.41,0,0,0,2.91-5.56,7.34,7.34,0,0,0-1.53-4.81,11.68,11.68,0,0,0-4-3.06,40.35,40.35,0,0,0-5.48-2.2q-3-1-6-2.19a24.54,24.54,0,0,1-5.47-3.07,13.64,13.64,0,0,1-4-4.8,16.33,16.33,0,0,1-1.51-7.5,15.08,15.08,0,0,1,2.56-8.88,16.41,16.41,0,0,1,7-5.6,23.93,23.93,0,0,1,9.77-1.93,23.07,23.07,0,0,1,10.4,2.27,21.74,21.74,0,0,1,7.45,5.81l-6.57,6.56a18.07,18.07,0,0,0-5.26-4.25,13.74,13.74,0,0,0-6.27-1.39A11.7,11.7,0,0,0,541,467.4a5.76,5.76,0,0,0-2.49,5,6.1,6.1,0,0,0,1.52,4.34,12.47,12.47,0,0,0,4,2.78c1.66.76,3.49,1.47,5.48,2.15s4,1.43,6,2.27a23.56,23.56,0,0,1,5.48,3.24,14.55,14.55,0,0,1,4,5.1,17.84,17.84,0,0,1,1.52,7.82q0,7.92-5.6,12.55C557.11,515.72,552.08,517.25,545.73,517.25Z"/><path class="cls-2" d="M589.6,516.42V457.47h9.69v58.95Z"/><path class="cls-2" d="M652.34,517.25a29.88,29.88,0,0,1-11.82-2.31,28.6,28.6,0,0,1-9.48-6.49,29.38,29.38,0,0,1-6.23-9.67,33.07,33.07,0,0,1,0-23.67,28.84,28.84,0,0,1,6.23-9.64,29.33,29.33,0,0,1,21.3-8.84A30,30,0,0,1,664.73,459a31.23,31.23,0,0,1,9.26,6.41L667.42,472a18,18,0,0,0-6.36-4.46,22,22,0,0,0-8.72-1.6,20.46,20.46,0,0,0-8,1.51,18,18,0,0,0-6.27,4.34,19.49,19.49,0,0,0-4.09,6.7,26,26,0,0,0,0,17,19.39,19.39,0,0,0,4.09,6.7,18,18,0,0,0,6.27,4.34,20.46,20.46,0,0,0,8,1.51,22.77,22.77,0,0,0,9.14-1.64,18.35,18.35,0,0,0,6.36-4.51l6.57,6.57a29.32,29.32,0,0,1-9.52,6.49A31.49,31.49,0,0,1,652.34,517.25Z"/><path class="cls-2" d="M210.4,618.31a23.62,23.62,0,0,1-12-3,22.26,22.26,0,0,1-8.38-8.3A23.13,23.13,0,0,1,187,595.07V558.52h9.69V595a14.71,14.71,0,0,0,1.81,7.45,12.68,12.68,0,0,0,4.92,4.88,14.2,14.2,0,0,0,7,1.73,13.88,13.88,0,0,0,7-1.73,12.58,12.58,0,0,0,4.8-4.88,14.83,14.83,0,0,0,1.77-7.37V558.52h9.68v36.63a23.16,23.16,0,0,1-3,11.87,22.24,22.24,0,0,1-8.25,8.26A23.39,23.39,0,0,1,210.4,618.31Z"/><path class="cls-2" d="M259.25,617.47v-59h9.68v59Zm35.62,0-27.29-30.74,26.7-28.21h12.38l-29.48,30.65v-5.3l30.32,33.6Z"/></g></g></svg>