<svg xmlns="http://www.w3.org/2000/svg" viewBox="0 0 859.91 859.91"><defs><style>.cls-1{fill:#fff;}.cls-2{fill:#b800d8;}.cls-3{fill:#250735;}</style></defs><g id="Layer_2" data-name="Layer 2"><g id="Layer_1-2" data-name="Layer 1"><rect class="cls-1" width="859.91" height="859.91"/><path class="cls-2" d="M395.16,318a103.79,103.79,0,0,1,39.06,12.45A97.2,97.2,0,0,1,464,356.07l.87-.22,10.86-2.72,80.87-20.27a142.77,142.77,0,0,0-214.71-9.32l9.2-2.31A122.39,122.39,0,0,1,395.16,318Z"/><path class="cls-2" d="M391.27,484.19q18.35-4.59,30.27-15.36a51.81,51.81,0,0,0,15.86-26.67q3.93-15.9-.88-35.11T420.67,376a54.35,54.35,0,0,0-26.53-15.9q-15.48-4-33.82.56l-35.55,8.9,31,123.55Z"/><path class="cls-2" d="M523,541.87a143.21,143.21,0,0,0,59.8-81.78L507.24,479Z"/><path class="cls-2" d="M497.31,439.41l90.53-22.69a142.15,142.15,0,0,0-10-47.09l-92.26,23.11Z"/><path class="cls-2" d="M442.45,505.48a119.39,119.39,0,0,1-40.12,18l-36.69,9.19-8.33,2.09a142.51,142.51,0,0,0,121.48,26.17l-18-71.77A109,109,0,0,1,442.45,505.48Z"/><rect class="cls-3" x="288.39" y="563.78" width="33.21" height="91.38" rx="16.61" transform="translate(174.9 1278.47) rotate(-142.41)"/><path class="cls-3" d="M394.88,221.7C284.36,249.39,217,361.84,244.66,472.37s140.15,178,250.68,150.25,178-140.15,150.25-250.71S505.41,194,394.88,221.7Zm95.33,380.45C391,627,290,566.5,265.14,467.24a184.65,184.65,0,0,1,7.74-113.82c1.95-4.84,4.06-9.58,6.42-14.2A185.08,185.08,0,0,1,400,242.17c99.23-24.86,200.24,35.64,225.1,134.87S589.44,577.28,490.21,602.15Z"/></g></g></svg>