<svg xmlns="http://www.w3.org/2000/svg" viewBox="0 0 846.64 846.64"><defs><style>.cls-1{fill:#250735;}.cls-2{fill:#b800d8;}.cls-3{fill:#fff;}</style></defs><g id="Layer_2" data-name="Layer 2"><g id="Layer_1-2" data-name="Layer 1"><rect class="cls-1" width="846.64" height="846.64"/><path class="cls-2" d="M379.35,309.8a104.07,104.07,0,0,1,39.07,12.45,97.45,97.45,0,0,1,29.74,25.67l.87-.22L459.89,345l80.87-20.26A142.76,142.76,0,0,0,326,315.4l9.2-2.31A122.42,122.42,0,0,1,379.35,309.8Z"/><path class="cls-2" d="M375.47,476q18.33-4.59,30.27-15.35A51.88,51.88,0,0,0,421.6,434q3.93-15.9-.88-35.12t-15.86-31.06A54.31,54.31,0,0,0,378.34,352q-15.49-4-33.83.55L309,361.41,339.92,485Z"/><path class="cls-2" d="M507.18,533.72A143.14,143.14,0,0,0,567,452l-75.54,18.93Z"/><path class="cls-2" d="M481.51,431.26,572,408.58a141.86,141.86,0,0,0-9.95-47.1L469.81,384.6Z"/><path class="cls-2" d="M426.65,497.34a119.34,119.34,0,0,1-40.13,18l-36.69,9.2-8.33,2.08A142.49,142.49,0,0,0,463,552.77L445,481A108.93,108.93,0,0,1,426.65,497.34Z"/><rect class="cls-3" x="272.59" y="555.64" width="33.21" height="91.38" rx="16.61" transform="translate(151.53 1254.23) rotate(-142.41)"/><path class="cls-3" d="M379.08,213.55C268.55,241.25,201.16,353.7,228.86,464.22S369,642.17,479.54,614.48,657.48,474.33,629.78,363.77,489.6,185.86,379.08,213.55ZM474.4,594c-99.23,24.87-200.19-35.64-225.07-134.91a184.59,184.59,0,0,1,7.75-113.82c1.94-4.84,4.05-9.57,6.42-14.19a185,185,0,0,1,120.71-97c99.23-24.87,200.23,35.63,225.09,134.87S573.64,569.14,474.4,594Z"/></g></g></svg>