<svg xmlns="http://www.w3.org/2000/svg" viewBox="0 0 846.64 846.64"><defs><style>.cls-1{fill:#250735;}.cls-2{fill:#fff;}</style></defs><g id="Layer_2" data-name="Layer 2"><g id="Layer_1-2" data-name="Layer 1"><rect class="cls-1" width="846.64" height="846.64"/><path class="cls-2" d="M390.41,309.8a104,104,0,0,1,39.06,12.45,97.34,97.34,0,0,1,29.74,25.67l.87-.22L470.94,345l80.87-20.26A142.74,142.74,0,0,0,337.1,315.4l9.2-2.31A122.4,122.4,0,0,1,390.41,309.8Z"/><path class="cls-2" d="M386.52,476q18.35-4.59,30.27-15.35A51.81,51.81,0,0,0,432.65,434q3.93-15.9-.88-35.12t-15.85-31.06A54.34,54.34,0,0,0,389.39,352q-15.48-4-33.83.55L320,361.41,351,485Z"/><path class="cls-2" d="M518.23,533.72A143.16,143.16,0,0,0,578,452l-75.54,18.93Z"/><path class="cls-2" d="M492.56,431.26l90.53-22.68a142.14,142.14,0,0,0-10-47.1L480.87,384.6Z"/><path class="cls-2" d="M437.7,497.34a119.37,119.37,0,0,1-40.12,18l-36.69,9.2-8.33,2.08A142.48,142.48,0,0,0,474,552.77l-18-71.78A109,109,0,0,1,437.7,497.34Z"/><rect class="cls-2" x="283.64" y="555.64" width="33.21" height="91.38" rx="16.61" transform="translate(171.35 1260.97) rotate(-142.41)"/><path class="cls-2" d="M390.13,213.55C279.61,241.25,212.22,353.7,239.91,464.22S380.06,642.17,490.59,614.48s178-140.15,150.24-250.71S500.66,185.86,390.13,213.55ZM485.46,594c-99.23,24.87-200.2-35.64-225.07-134.91a184.66,184.66,0,0,1,7.74-113.82c1.95-4.84,4.06-9.57,6.42-14.19a185,185,0,0,1,120.71-97c99.23-24.87,200.24,35.63,225.1,134.87S584.69,569.14,485.46,594Z"/></g></g></svg>