<svg xmlns="http://www.w3.org/2000/svg" viewBox="0 0 286.02 71.78"><defs><style>.cls-1{fill:#fff;}</style></defs><g id="Layer_2" data-name="Layer 2"><g id="Layer_1-2" data-name="Layer 1"><polygon class="cls-1" points="78.64 45.45 71.78 52.3 64.86 59.23 64.73 59.35 51.92 46.54 39.49 58.97 32.82 65.64 0 32.82 32.82 0 47.03 14.21 40.36 20.88 32.82 13.34 13.34 32.82 32.82 52.3 45.38 39.74 52.3 32.82 64.95 45.47 71.81 38.62 78.64 45.45"/><rect class="cls-1" x="47.35" y="59.83" width="9.9" height="9.9" transform="translate(-30.49 55.94) rotate(-44.99)"/><path class="cls-1" d="M74.89,26.82A12.38,12.38,0,0,1,70.23,26a10.75,10.75,0,0,1-6.11-6.08,12.45,12.45,0,0,1-.85-4.68,11.59,11.59,0,0,1,.9-4.61,11.06,11.06,0,0,1,6.22-6.08,12.54,12.54,0,0,1,4.72-.87,11.88,11.88,0,0,1,3.14.42A11,11,0,0,1,81.11,5.3,9.39,9.39,0,0,1,83.4,7.24L80.07,11a10.88,10.88,0,0,0-1.42-1.23,6.19,6.19,0,0,0-3.57-1.1,6.35,6.35,0,0,0-2.42.46,5.94,5.94,0,0,0-3.31,3.38,7.36,7.36,0,0,0-.48,2.72,7.13,7.13,0,0,0,.48,2.67A6,6,0,0,0,70.7,20a5.57,5.57,0,0,0,2.09,1.32,8,8,0,0,0,2.74.44,6.62,6.62,0,0,0,2-.28,7,7,0,0,0,1.71-.79,7.38,7.38,0,0,0,1.39-1.13l2.63,4.16a7.76,7.76,0,0,1-2.13,1.6,13,13,0,0,1-2.94,1.1A13.33,13.33,0,0,1,74.89,26.82Z"/><path class="cls-1" d="M92.71,26.5V15.33l.23,1.57L83.88,4.1h6.18L97,14l-2.82-.1,6.24-9.82h6L97.7,17.25l.48-2.17V26.5Z"/><path class="cls-1" d="M109,26.5V4.1h9.89a10.26,10.26,0,0,1,3.9.66,5.1,5.1,0,0,1,2.42,1.88,5.29,5.29,0,0,1,.81,3,5.42,5.42,0,0,1-.94,3.24,4.63,4.63,0,0,1-2.74,1.76l-.06-.61a6.85,6.85,0,0,1,2.61,1.12,5.51,5.51,0,0,1,2.32,4.61,7.17,7.17,0,0,1-.58,3,5.65,5.65,0,0,1-1.66,2.12,7.12,7.12,0,0,1-2.55,1.28,11.55,11.55,0,0,1-3.21.42Zm5.12-13.41h4a3.39,3.39,0,0,0,1.42-.27,2,2,0,0,0,.9-.77,2.27,2.27,0,0,0,.3-1.2,2,2,0,0,0-.7-1.61,3.2,3.2,0,0,0-2.11-.6h-3.81Zm0,8.87H119a3.61,3.61,0,0,0,1.52-.29,2.2,2.2,0,0,0,1-.85,2.55,2.55,0,0,0,.35-1.36,2.06,2.06,0,0,0-.37-1.25,2.26,2.26,0,0,0-1-.78,4.25,4.25,0,0,0-1.6-.27h-4.73Z"/><path class="cls-1" d="M131.4,26.5V4.1H147V8.74H136.68V21.86h10.66V26.5ZM134,17.32V12.9h11.62v4.42Z"/><path class="cls-1" d="M152,26.5V4.1h10.08A8.16,8.16,0,0,1,166,5a7,7,0,0,1,2.73,2.54,6.89,6.89,0,0,1,1,3.67,7.34,7.34,0,0,1-1,3.79A7.11,7.11,0,0,1,166,17.67a7.88,7.88,0,0,1-3.9,1h-4.9V26.5Zm5.18-12h4.42a2.74,2.74,0,0,0,1.45-.37,2.36,2.36,0,0,0,1-1,3.31,3.31,0,0,0,.34-1.53A3,3,0,0,0,164,10a2.57,2.57,0,0,0-1.11-1,3.86,3.86,0,0,0-1.74-.36h-3.94Zm7.24,12-5.7-10.11,5.57-.8,6.33,10.91Z"/><path class="cls-1" d="M181.89,26.5l8.87-22.4h4.61l8.8,22.4h-5.51l-4.22-11.36q-.25-.68-.51-1.44c-.17-.51-.35-1-.51-1.58s-.34-1.08-.5-1.6-.3-1-.4-1.46l1,0c-.13.53-.27,1.05-.43,1.57l-.48,1.52c-.16.5-.34,1-.53,1.5s-.37,1-.54,1.55L187.27,26.5Zm4.23-4.29,1.69-4.09h10.31l1.66,4.09Z"/><path class="cls-1" d="M207,26.5V4.1h5.44V21.7h10v4.8Z"/><path class="cls-1" d="M226.44,26.5V4.1h15.61V8.74H231.72V21.86h10.65V26.5ZM229,17.32V12.9h11.61v4.42Z"/><path class="cls-1" d="M247.08,26.5V4.1h10.08a8.16,8.16,0,0,1,3.89.93,7,7,0,0,1,2.73,2.54,6.89,6.89,0,0,1,1,3.67,7.34,7.34,0,0,1-1,3.79,7.11,7.11,0,0,1-2.72,2.64,7.88,7.88,0,0,1-3.9,1h-4.9V26.5Zm5.18-12h4.42a2.74,2.74,0,0,0,1.45-.37,2.36,2.36,0,0,0,1-1,3.31,3.31,0,0,0,.34-1.53,3,3,0,0,0-.38-1.53,2.57,2.57,0,0,0-1.11-1,3.86,3.86,0,0,0-1.74-.36h-3.94Zm7.23,12L253.8,16.39l5.57-.8L265.7,26.5Z"/><path class="cls-1" d="M273.77,26.5V8.9h-6.66V4.1H286V8.9h-6.81V26.5Z"/><path class="cls-1" d="M136.4,48.89V37.69H138l6.85,9.16-.26.15c0-.27-.08-.56-.11-.87s-.06-.65-.09-1-.05-.74-.06-1.14,0-.82,0-1.25,0-.9,0-1.36V37.69H146v11.2h-1.58l-6.74-8.84.18-.22c.05.65.1,1.2.13,1.66s.07.83.1,1.15,0,.57.05.77,0,.36,0,.48,0,.24,0,.34v4.66Z"/><path class="cls-1" d="M155.81,48.89V37.69h7.05v1.66h-5.32v7.87h5.32v1.67Zm.78-4.92V42.31H162V44Z"/><path class="cls-1" d="M172.35,48.89V37.69h4.56a3.16,3.16,0,0,1,1.66.45,3.54,3.54,0,0,1,1.19,1.24,3.46,3.46,0,0,1,.45,1.75,3.42,3.42,0,0,1-.45,1.74,3.69,3.69,0,0,1-1.19,1.26,3.08,3.08,0,0,1-1.66.47h-2.83v4.29Zm1.73-6h2.8a1.33,1.33,0,0,0,.78-.24,1.92,1.92,0,0,0,.79-1.56,1.79,1.79,0,0,0-.22-.9,1.68,1.68,0,0,0-.57-.64,1.33,1.33,0,0,0-.78-.24h-2.8Z"/><path class="cls-1" d="M187,48.89l4.33-11.2h1.76l4.31,11.2h-1.84L193,42.13c0-.07-.1-.25-.19-.54s-.19-.61-.31-1-.22-.67-.32-1-.16-.48-.19-.57h.37c-.07.18-.14.41-.23.69s-.19.57-.29.88-.2.6-.3.87-.17.5-.24.68l-2.54,6.69Zm1.92-2.79.64-1.66h5.09l.73,1.66Z"/><path class="cls-1" d="M206.1,48.89V37.69h1.72v9.53h5.25v1.67Z"/></g></g></svg>