<svg xmlns="http://www.w3.org/2000/svg" viewBox="0 0 222.75 45.78"><defs><style>.cls-1{fill:#fff;}</style></defs><g id="Layer_2" data-name="Layer 2"><g id="Layer_1-2" data-name="Layer 1"><path class="cls-1" d="M11.62,23.17A12.58,12.58,0,0,1,7,22.32a11,11,0,0,1-3.7-2.4A10.69,10.69,0,0,1,.85,16.24,12.47,12.47,0,0,1,0,11.55,11.66,11.66,0,0,1,.9,6.94,11,11,0,0,1,3.38,3.28,11.33,11.33,0,0,1,7.12.86,12.7,12.7,0,0,1,11.84,0,11.88,11.88,0,0,1,15,.42a10.4,10.4,0,0,1,2.86,1.23,9.78,9.78,0,0,1,2.29,1.93L16.8,7.39a9.55,9.55,0,0,0-1.42-1.23,6.44,6.44,0,0,0-6-.64A5.86,5.86,0,0,0,6.08,8.9a7.32,7.32,0,0,0-.48,2.72,7.13,7.13,0,0,0,.48,2.67,6.07,6.07,0,0,0,1.34,2.06,5.54,5.54,0,0,0,2.1,1.31,7.91,7.91,0,0,0,2.74.45,6.31,6.31,0,0,0,2-.29,7.12,7.12,0,0,0,3.1-1.92l2.63,4.16a7.71,7.71,0,0,1-2.13,1.6,13.07,13.07,0,0,1-2.95,1.11A13.75,13.75,0,0,1,11.62,23.17Z"/><path class="cls-1" d="M29.44,22.85V11.68l.22,1.57-9-12.8h6.17l6.92,9.92-2.82-.1L37.12.45h6L34.43,13.6l.48-2.18V22.85Z"/><path class="cls-1" d="M45.7,22.85V.45h9.88a10.48,10.48,0,0,1,3.91.65A5.15,5.15,0,0,1,61.9,3a5.19,5.19,0,0,1,.82,3,5.43,5.43,0,0,1-.94,3.23A4.57,4.57,0,0,1,59,10.94l-.06-.6a6.59,6.59,0,0,1,2.6,1.12,5.52,5.52,0,0,1,1.71,2,5.58,5.58,0,0,1,.61,2.64,7.14,7.14,0,0,1-.57,3,5.63,5.63,0,0,1-1.67,2.13,7.16,7.16,0,0,1-2.54,1.28,11.57,11.57,0,0,1-3.22.42ZM50.82,9.44h4a3.43,3.43,0,0,0,1.42-.27,2,2,0,0,0,.89-.77,2.19,2.19,0,0,0,.31-1.2,2,2,0,0,0-.7-1.62A3.27,3.27,0,0,0,54.62,5h-3.8Zm0,8.86h4.89A3.62,3.62,0,0,0,57.23,18a2.32,2.32,0,0,0,1-.85,2.57,2.57,0,0,0,.35-1.36,2.06,2.06,0,0,0-.37-1.25,2.26,2.26,0,0,0-1-.78,4.09,4.09,0,0,0-1.6-.28H50.82Z"/><path class="cls-1" d="M68.13,22.85V.45H83.74V5.09H73.41V18.21H84.06v4.64Zm2.56-9.19V9.25H82.3v4.41Z"/><path class="cls-1" d="M88.77,22.85V.45H98.85a8.09,8.09,0,0,1,3.88.93,6.82,6.82,0,0,1,3.73,6.2,7.35,7.35,0,0,1-1,3.8A7.11,7.11,0,0,1,102.75,14a7.88,7.88,0,0,1-3.9,1H94v7.87Zm5.18-12h4.42a2.84,2.84,0,0,0,1.45-.37,2.42,2.42,0,0,0,1-1,3.32,3.32,0,0,0,.34-1.54,2.94,2.94,0,0,0-.39-1.52,2.57,2.57,0,0,0-1.1-1A4,4,0,0,0,97.89,5H94Zm7.23,12L95.49,12.74l5.56-.8,6.34,10.91Z"/><path class="cls-1" d="M118.62,22.85,127.49.45h4.6l8.8,22.4h-5.5l-4.22-11.36c-.17-.45-.35-.93-.52-1.44s-.34-1-.51-1.59-.33-1.07-.49-1.6-.3-1-.4-1.45l1,0c-.13.53-.28,1-.44,1.56s-.32,1-.48,1.52-.33,1-.52,1.51-.38,1-.55,1.55L124,22.85Zm4.23-4.29,1.69-4.1h10.31l1.66,4.1Z"/><path class="cls-1" d="M143.68,22.85V.45h5.44v17.6h10v4.8Z"/><path class="cls-1" d="M163.17,22.85V.45h15.61V5.09H168.45V18.21H179.1v4.64Zm2.56-9.19V9.25h11.61v4.41Z"/><path class="cls-1" d="M183.8,22.85V.45h10.08a8.13,8.13,0,0,1,3.89.93,6.82,6.82,0,0,1,3.73,6.2,7.35,7.35,0,0,1-1,3.8A7.11,7.11,0,0,1,197.79,14a7.89,7.89,0,0,1-3.91,1H189v7.87Zm5.19-12h4.42a2.84,2.84,0,0,0,1.45-.37,2.42,2.42,0,0,0,1-1,3.45,3.45,0,0,0,.34-1.54,2.94,2.94,0,0,0-.39-1.52,2.57,2.57,0,0,0-1.1-1A4,4,0,0,0,192.93,5H189Zm7.23,12-5.69-10.11,5.56-.8,6.34,10.91Z"/><path class="cls-1" d="M210.49,22.85V5.25h-6.65V.45h18.91v4.8h-6.82v17.6Z"/><path class="cls-1" d="M67.37,45.78V34.58h1.55l6.85,9.17-.26.14c0-.26-.08-.55-.11-.87s-.06-.65-.09-1,0-.73-.06-1.13,0-.82,0-1.26,0-.89,0-1.36V34.58h1.73v11.2H75.33L68.6,37l.18-.22c0,.65.09,1.2.13,1.65l.1,1.15c0,.32,0,.57,0,.77s0,.36,0,.49v5Z"/><path class="cls-1" d="M89.65,45.78V34.58h7.06v1.67H91.38v7.87h5.33v1.66Zm.79-4.91V39.21h5.39v1.66Z"/><path class="cls-1" d="M109.08,45.78V34.58h4.56a3,3,0,0,1,1.65.46,3.33,3.33,0,0,1,1.2,1.24,3.41,3.41,0,0,1,.44,1.74,3.45,3.45,0,0,1-1.64,3,2.94,2.94,0,0,1-1.65.47h-2.83v4.29Zm1.73-6h2.8a1.3,1.3,0,0,0,.78-.25,1.85,1.85,0,0,0,.57-.66,1.86,1.86,0,0,0-.57-2.43,1.36,1.36,0,0,0-.78-.24h-2.8Z"/><path class="cls-1" d="M126.61,45.78,131,34.58h1.76l4.3,11.2h-1.84L132.61,39c0-.07-.09-.26-.18-.54s-.19-.61-.31-1-.23-.68-.32-1l-.19-.57.36,0-.23.69-.29.88c-.1.31-.2.6-.29.87s-.18.5-.24.68l-2.55,6.69ZM128.53,43l.64-1.67h5.09L135,43Z"/><path class="cls-1" d="M148.58,45.78V34.58h1.73v9.54h5.25v1.66Z"/></g></g></svg>