<?xml version="1.0" encoding="utf-8"?>
<!-- Generator: Adobe Illustrator 26.0.1, SVG Export Plug-In . SVG Version: 6.00 Build 0)  -->
<svg version="1.1" id="Layer_1" xmlns="http://www.w3.org/2000/svg" xmlns:xlink="http://www.w3.org/1999/xlink" x="0px" y="0px"
	 viewBox="0 0 800 800" style="enable-background:new 0 0 800 800;" xml:space="preserve">
<style type="text/css">
	.st0{fill:#FFFFFF;}
	.st1{fill:#0071BD;}
	.st2{fill:#CC2748;}
</style>
<rect class="st0" width="800" height="800"/>
<g>
	<g>
		<polygon class="st1" points="223.67,94.99 217.85,100.81 211.97,106.69 211.86,106.8 200.98,95.92 190.43,106.48 184.77,112.14 
			156.9,84.27 184.77,56.41 196.84,68.48 191.17,74.14 184.77,67.73 168.23,84.27 184.77,100.81 195.43,90.15 201.31,84.27 
			212.05,95.02 217.87,89.2 		"/>
		
			<rect x="197.1" y="107.2" transform="matrix(0.7072 -0.707 0.707 0.7072 -19.8242 174.9482)" class="st2" width="8.41" height="8.41"/>
	</g>
	<g>
		<path class="st1" d="M92.05,149.91c-1.69,0-3.24-0.28-4.66-0.85c-1.42-0.56-2.65-1.36-3.7-2.4c-1.05-1.04-1.85-2.26-2.42-3.68
			c-0.57-1.42-0.85-2.98-0.85-4.69c0-1.66,0.3-3.2,0.9-4.61c0.6-1.41,1.42-2.63,2.48-3.66c1.06-1.03,2.3-1.84,3.74-2.42
			c1.44-0.58,3.01-0.86,4.72-0.86c1.07,0,2.11,0.14,3.14,0.42s1.98,0.69,2.86,1.23s1.65,1.19,2.29,1.94l-3.33,3.81
			c-0.45-0.47-0.92-0.88-1.42-1.23c-0.5-0.35-1.05-0.62-1.65-0.82c-0.6-0.19-1.24-0.29-1.92-0.29c-0.85,0-1.66,0.16-2.42,0.46
			c-0.76,0.31-1.42,0.75-1.98,1.31c-0.57,0.57-1.01,1.25-1.33,2.06c-0.32,0.81-0.48,1.72-0.48,2.72c0,0.98,0.16,1.87,0.48,2.67
			c0.32,0.8,0.77,1.49,1.34,2.06c0.58,0.58,1.27,1.01,2.1,1.31c0.82,0.3,1.73,0.45,2.74,0.45c0.68,0,1.33-0.1,1.95-0.29
			c0.62-0.19,1.19-0.45,1.71-0.78c0.52-0.33,0.99-0.71,1.39-1.14l2.62,4.16c-0.53,0.6-1.24,1.13-2.13,1.6
			c-0.89,0.47-1.87,0.84-2.94,1.1C94.22,149.78,93.14,149.91,92.05,149.91z"/>
		<path class="st1" d="M109.88,149.59v-11.17l0.22,1.57l-9.06-12.8h6.18l6.91,9.92l-2.82-0.1l6.24-9.82h5.98l-8.67,13.15l0.48-2.18
			v11.42H109.88z"/>
		<path class="st1" d="M126.13,149.59v-22.4h9.89c1.54,0,2.84,0.22,3.9,0.66c1.07,0.44,1.87,1.07,2.42,1.89
			c0.54,0.82,0.82,1.81,0.82,2.96c0,1.28-0.31,2.36-0.94,3.23c-0.63,0.88-1.54,1.46-2.74,1.76l-0.06-0.61
			c1,0.21,1.87,0.59,2.61,1.12c0.74,0.53,1.31,1.19,1.71,1.97c0.4,0.78,0.61,1.66,0.61,2.64c0,1.13-0.19,2.12-0.58,2.96
			c-0.38,0.84-0.94,1.55-1.66,2.13c-0.73,0.58-1.57,1-2.54,1.28c-0.97,0.28-2.04,0.42-3.22,0.42H126.13z M131.25,136.18h4
			c0.55,0,1.03-0.09,1.42-0.27c0.39-0.18,0.69-0.44,0.9-0.77c0.2-0.33,0.3-0.73,0.3-1.2c0-0.68-0.23-1.22-0.7-1.62
			s-1.17-0.59-2.11-0.59h-3.81V136.18z M131.25,145.05h4.9c0.6,0,1.1-0.1,1.52-0.29s0.74-0.47,0.98-0.85
			c0.23-0.37,0.35-0.83,0.35-1.36c0-0.49-0.12-0.91-0.37-1.25c-0.25-0.34-0.59-0.6-1.04-0.78c-0.45-0.18-0.98-0.27-1.6-0.27h-4.74
			V145.05z"/>
		<path class="st1" d="M148.56,149.59v-22.4h15.62v4.64h-10.34v13.12h10.66v4.64H148.56z M151.12,140.41v-4.42h11.62v4.42H151.12z"
			/>
		<path class="st1" d="M169.2,149.59v-22.4h10.08c1.43,0,2.73,0.31,3.89,0.93c1.16,0.62,2.07,1.47,2.74,2.54
			c0.66,1.08,0.99,2.3,0.99,3.66c0,1.41-0.33,2.67-0.99,3.79c-0.66,1.12-1.57,2-2.72,2.64c-1.15,0.64-2.45,0.96-3.9,0.96h-4.9v7.87
			H169.2z M174.39,137.56h4.42c0.55,0,1.04-0.12,1.46-0.37c0.42-0.24,0.74-0.59,0.96-1.04c0.22-0.45,0.34-0.96,0.34-1.54
			c0-0.58-0.13-1.08-0.38-1.52c-0.26-0.44-0.62-0.77-1.1-1.01c-0.48-0.23-1.06-0.35-1.74-0.35h-3.94V137.56z M181.62,149.59
			l-5.7-10.11l5.57-0.8l6.34,10.91H181.62z"/>
		<path class="st1" d="M199.06,149.59l8.86-22.4h4.61l8.8,22.4h-5.5l-4.22-11.36c-0.17-0.45-0.34-0.93-0.51-1.44
			c-0.17-0.51-0.34-1.04-0.51-1.58s-0.34-1.08-0.5-1.6c-0.16-0.52-0.29-1.01-0.4-1.46l0.96-0.03c-0.13,0.53-0.27,1.06-0.43,1.57
			c-0.16,0.51-0.32,1.02-0.48,1.52c-0.16,0.5-0.34,1-0.53,1.5c-0.19,0.5-0.37,1.02-0.54,1.55l-4.22,11.33H199.06z M203.28,145.3
			l1.7-4.1h10.3l1.66,4.1H203.28z"/>
		<path class="st1" d="M224.12,149.59v-22.4h5.44v17.6h9.98v4.8H224.12z"/>
		<path class="st1" d="M243.6,149.59v-22.4h15.62v4.64h-10.34v13.12h10.66v4.64H243.6z M246.16,140.41v-4.42h11.62v4.42H246.16z"/>
		<path class="st1" d="M264.24,149.59v-22.4h10.08c1.43,0,2.73,0.31,3.89,0.93c1.16,0.62,2.07,1.47,2.74,2.54
			c0.66,1.08,0.99,2.3,0.99,3.66c0,1.41-0.33,2.67-0.99,3.79c-0.66,1.12-1.57,2-2.72,2.64c-1.15,0.64-2.45,0.96-3.9,0.96h-4.9v7.87
			H264.24z M269.43,137.56h4.42c0.55,0,1.04-0.12,1.46-0.37c0.42-0.24,0.74-0.59,0.96-1.04c0.22-0.45,0.34-0.96,0.34-1.54
			c0-0.58-0.13-1.08-0.38-1.52c-0.26-0.44-0.62-0.77-1.1-1.01c-0.48-0.23-1.06-0.35-1.74-0.35h-3.94V137.56z M276.66,149.59
			l-5.7-10.11l5.57-0.8l6.34,10.91H276.66z"/>
		<path class="st1" d="M290.93,149.59v-17.6h-6.66v-4.8h18.91v4.8h-6.82v17.6H290.93z"/>
		<path class="st2" d="M147.8,172.52v-11.2h1.55l6.85,9.17l-0.26,0.14c-0.04-0.27-0.08-0.56-0.11-0.87
			c-0.03-0.31-0.06-0.65-0.09-1.01c-0.03-0.36-0.05-0.74-0.06-1.14c-0.02-0.4-0.03-0.82-0.04-1.26c-0.01-0.44-0.02-0.89-0.02-1.36
			v-3.68h1.73v11.2h-1.58l-6.74-8.83l0.18-0.22c0.05,0.65,0.1,1.2,0.14,1.66c0.04,0.45,0.07,0.84,0.1,1.15
			c0.03,0.31,0.05,0.57,0.06,0.77c0.01,0.2,0.02,0.36,0.02,0.49s0.01,0.24,0.01,0.34v4.66H147.8z"/>
		<path class="st2" d="M170.09,172.52v-11.2h7.06v1.66h-5.33v7.87h5.33v1.66H170.09z M170.88,167.61v-1.66h5.39v1.66H170.88z"/>
		<path class="st2" d="M189.52,172.52v-11.2h4.56c0.61,0,1.16,0.15,1.66,0.46c0.5,0.3,0.89,0.72,1.19,1.24
			c0.3,0.52,0.45,1.1,0.45,1.74c0,0.64-0.15,1.22-0.45,1.74c-0.3,0.52-0.7,0.94-1.19,1.26c-0.5,0.31-1.05,0.47-1.66,0.47h-2.83v4.29
			H189.52z M191.24,166.57h2.8c0.29,0,0.55-0.08,0.78-0.25c0.23-0.17,0.42-0.38,0.57-0.66c0.14-0.27,0.22-0.57,0.22-0.9
			c0-0.33-0.07-0.63-0.22-0.9c-0.14-0.27-0.33-0.48-0.57-0.64c-0.23-0.16-0.5-0.24-0.78-0.24h-2.8V166.57z"/>
		<path class="st2" d="M207.05,172.52l4.34-11.2h1.76l4.3,11.2h-1.84l-2.56-6.75c-0.03-0.07-0.09-0.26-0.18-0.54
			c-0.09-0.29-0.19-0.61-0.31-0.96c-0.12-0.35-0.22-0.67-0.32-0.97c-0.1-0.29-0.16-0.48-0.19-0.57l0.37-0.02
			c-0.06,0.18-0.14,0.41-0.23,0.69s-0.19,0.57-0.29,0.88c-0.1,0.31-0.2,0.6-0.3,0.87c-0.1,0.27-0.18,0.5-0.24,0.68l-2.54,6.69
			H207.05z M208.97,169.74l0.64-1.66h5.09l0.74,1.66H208.97z"/>
		<path class="st2" d="M229.02,172.52v-11.2h1.73v9.54H236v1.66H229.02z"/>
	</g>
</g>
<g>
	<polygon class="st1" points="214.57,301.49 208.75,307.31 202.87,313.19 202.76,313.3 191.89,302.42 181.33,312.97 175.67,318.64 
		147.8,290.77 175.67,262.9 187.74,274.97 182.07,280.63 175.67,274.23 159.13,290.77 175.67,307.31 186.33,296.65 192.21,290.77 
		202.95,301.51 208.77,295.69 	"/>
	
		<rect x="188.01" y="313.7" transform="matrix(0.7072 -0.707 0.707 0.7072 -168.4845 228.9777)" class="st2" width="8.41" height="8.41"/>
</g>
<g>
	<path class="st1" d="M487.86,297.12c-1.69,0-3.24-0.28-4.66-0.85c-1.42-0.56-2.65-1.37-3.7-2.4s-1.85-2.26-2.42-3.68
		s-0.85-2.98-0.85-4.69c0-1.66,0.3-3.2,0.9-4.61c0.6-1.41,1.42-2.63,2.48-3.66c1.06-1.03,2.3-1.84,3.74-2.42
		c1.44-0.57,3.01-0.86,4.72-0.86c1.07,0,2.11,0.14,3.14,0.42c1.02,0.28,1.98,0.69,2.86,1.23c0.88,0.54,1.65,1.19,2.29,1.94
		l-3.33,3.81c-0.45-0.47-0.92-0.88-1.42-1.23c-0.5-0.35-1.05-0.62-1.65-0.82c-0.6-0.19-1.24-0.29-1.92-0.29
		c-0.85,0-1.66,0.15-2.42,0.46c-0.76,0.31-1.42,0.75-1.98,1.31c-0.57,0.57-1.01,1.25-1.33,2.06c-0.32,0.81-0.48,1.72-0.48,2.72
		c0,0.98,0.16,1.87,0.48,2.67c0.32,0.8,0.77,1.49,1.34,2.06s1.27,1.01,2.1,1.31s1.73,0.45,2.74,0.45c0.68,0,1.33-0.1,1.95-0.29
		c0.62-0.19,1.19-0.45,1.71-0.78c0.52-0.33,0.99-0.71,1.39-1.14l2.62,4.16c-0.53,0.6-1.24,1.13-2.13,1.6
		c-0.89,0.47-1.87,0.84-2.94,1.1C490.03,296.99,488.95,297.12,487.86,297.12z"/>
	<path class="st1" d="M505.68,296.8v-11.17l0.22,1.57l-9.06-12.8h6.18l6.91,9.92l-2.82-0.1l6.24-9.82h5.98l-8.67,13.15l0.48-2.18
		v11.42H505.68z"/>
	<path class="st1" d="M521.94,296.8v-22.4h9.89c1.54,0,2.84,0.22,3.9,0.66c1.07,0.44,1.87,1.07,2.42,1.89
		c0.54,0.82,0.82,1.81,0.82,2.96c0,1.28-0.31,2.36-0.94,3.23c-0.63,0.88-1.54,1.46-2.74,1.76l-0.06-0.61c1,0.21,1.87,0.59,2.61,1.12
		s1.31,1.19,1.71,1.97c0.41,0.78,0.61,1.66,0.61,2.64c0,1.13-0.19,2.12-0.58,2.96c-0.38,0.84-0.94,1.55-1.66,2.13
		c-0.73,0.58-1.57,1-2.54,1.28s-2.04,0.42-3.22,0.42H521.94z M527.06,283.4h4c0.55,0,1.03-0.09,1.42-0.27
		c0.39-0.18,0.69-0.44,0.9-0.77c0.2-0.33,0.3-0.73,0.3-1.2c0-0.68-0.24-1.22-0.7-1.62c-0.47-0.39-1.17-0.59-2.11-0.59h-3.81V283.4z
		 M527.06,292.26h4.9c0.6,0,1.1-0.1,1.52-0.29c0.42-0.19,0.74-0.47,0.98-0.85c0.23-0.37,0.35-0.83,0.35-1.36
		c0-0.49-0.12-0.91-0.37-1.25c-0.25-0.34-0.59-0.6-1.04-0.79c-0.45-0.18-0.98-0.27-1.6-0.27h-4.74V292.26z"/>
	<path class="st1" d="M544.37,296.8v-22.4h15.62v4.64h-10.34v13.12h10.66v4.64H544.37z M546.93,287.62v-4.42h11.62v4.42H546.93z"/>
	<path class="st1" d="M565.01,296.8v-22.4h10.08c1.43,0,2.72,0.31,3.89,0.93c1.16,0.62,2.07,1.47,2.74,2.54
		c0.66,1.08,0.99,2.3,0.99,3.66c0,1.41-0.33,2.67-0.99,3.79c-0.66,1.12-1.57,2-2.72,2.64c-1.15,0.64-2.45,0.96-3.9,0.96h-4.9v7.87
		H565.01z M570.19,284.77h4.42c0.55,0,1.04-0.12,1.46-0.37c0.42-0.24,0.74-0.59,0.96-1.04c0.22-0.45,0.34-0.96,0.34-1.54
		c0-0.58-0.13-1.08-0.38-1.52c-0.26-0.44-0.62-0.77-1.1-1.01c-0.48-0.23-1.06-0.35-1.74-0.35h-3.94V284.77z M577.42,296.8
		l-5.7-10.11l5.57-0.8l6.34,10.91H577.42z"/>
	<path class="st1" d="M594.86,296.8l8.86-22.4h4.61l8.8,22.4h-5.5l-4.22-11.36c-0.17-0.45-0.34-0.93-0.51-1.44
		c-0.17-0.51-0.34-1.04-0.51-1.58c-0.17-0.54-0.34-1.08-0.5-1.6c-0.16-0.52-0.29-1.01-0.4-1.46l0.96-0.03
		c-0.13,0.53-0.27,1.05-0.43,1.57c-0.16,0.51-0.32,1.02-0.48,1.52c-0.16,0.5-0.34,1-0.53,1.5c-0.19,0.5-0.37,1.02-0.54,1.55
		l-4.22,11.33H594.86z M599.09,292.52l1.7-4.1h10.3l1.66,4.1H599.09z"/>
	<path class="st1" d="M619.92,296.8v-22.4h5.44V292h9.98v4.8H619.92z"/>
	<path class="st1" d="M639.41,296.8v-22.4h15.62v4.64h-10.34v13.12h10.66v4.64H639.41z M641.97,287.62v-4.42h11.62v4.42H641.97z"/>
	<path class="st1" d="M660.05,296.8v-22.4h10.08c1.43,0,2.73,0.31,3.89,0.93c1.16,0.62,2.07,1.47,2.74,2.54
		c0.66,1.08,0.99,2.3,0.99,3.66c0,1.41-0.33,2.67-0.99,3.79c-0.66,1.12-1.57,2-2.72,2.64c-1.15,0.64-2.45,0.96-3.9,0.96h-4.9v7.87
		H660.05z M665.23,284.77h4.42c0.55,0,1.04-0.12,1.46-0.37c0.42-0.24,0.74-0.59,0.96-1.04c0.22-0.45,0.34-0.96,0.34-1.54
		c0-0.58-0.13-1.08-0.38-1.52c-0.26-0.44-0.62-0.77-1.1-1.01c-0.48-0.23-1.06-0.35-1.74-0.35h-3.94V284.77z M672.46,296.8
		l-5.7-10.11l5.57-0.8l6.34,10.91H672.46z"/>
	<path class="st1" d="M686.73,296.8v-17.6h-6.66v-4.8h18.91v4.8h-6.82v17.6H686.73z"/>
	<path class="st2" d="M543.61,319.74v-11.2h1.55l6.85,9.17l-0.26,0.14c-0.04-0.27-0.08-0.56-0.11-0.87s-0.06-0.65-0.09-1.01
		s-0.05-0.74-0.06-1.14c-0.02-0.4-0.03-0.82-0.04-1.26c-0.01-0.44-0.02-0.89-0.02-1.36v-3.68h1.73v11.2h-1.58l-6.74-8.83l0.18-0.22
		c0.05,0.65,0.1,1.2,0.14,1.65c0.04,0.46,0.07,0.84,0.1,1.15c0.03,0.31,0.04,0.57,0.06,0.77c0.01,0.2,0.02,0.36,0.02,0.49
		c0,0.13,0.01,0.24,0.01,0.34v4.66H543.61z"/>
	<path class="st2" d="M565.9,319.74v-11.2h7.06v1.66h-5.33v7.87h5.33v1.66H565.9z M566.68,314.82v-1.66h5.39v1.66H566.68z"/>
	<path class="st2" d="M585.32,319.74v-11.2h4.56c0.61,0,1.16,0.15,1.66,0.46c0.5,0.3,0.89,0.72,1.19,1.24
		c0.3,0.52,0.45,1.1,0.45,1.74s-0.15,1.22-0.45,1.74c-0.3,0.52-0.7,0.94-1.19,1.26c-0.5,0.31-1.05,0.47-1.66,0.47h-2.83v4.29H585.32
		z M587.05,313.79h2.8c0.29,0,0.55-0.08,0.78-0.25c0.23-0.17,0.42-0.38,0.57-0.66c0.14-0.27,0.22-0.57,0.22-0.9s-0.07-0.63-0.22-0.9
		c-0.14-0.27-0.33-0.48-0.57-0.64c-0.24-0.16-0.5-0.24-0.78-0.24h-2.8V313.79z"/>
	<path class="st2" d="M602.85,319.74l4.34-11.2h1.76l4.3,11.2h-1.84l-2.56-6.75c-0.03-0.07-0.09-0.26-0.18-0.54
		c-0.09-0.29-0.19-0.61-0.31-0.96c-0.12-0.35-0.22-0.67-0.32-0.97c-0.1-0.29-0.16-0.48-0.19-0.57l0.37-0.02
		c-0.06,0.18-0.14,0.41-0.23,0.69s-0.19,0.57-0.29,0.88c-0.1,0.31-0.2,0.6-0.3,0.87c-0.1,0.27-0.18,0.5-0.24,0.68l-2.54,6.69H602.85
		z M604.77,316.95l0.64-1.66h5.09l0.74,1.66H604.77z"/>
	<path class="st2" d="M624.82,319.74v-11.2h1.73v9.54h5.25v1.66H624.82z"/>
</g>
<g>
	<g>
		<polygon class="st1" points="522.03,129 515.18,135.85 508.25,142.78 508.13,142.9 495.31,130.09 482.88,142.52 476.21,149.19 
			443.39,116.37 476.21,83.55 490.43,97.76 483.76,104.43 476.21,96.89 456.73,116.37 476.21,135.85 488.77,123.29 495.69,116.37 
			508.35,129.02 515.2,122.17 		"/>
		
			<rect x="490.74" y="143.38" transform="matrix(0.7072 -0.707 0.707 0.7072 40.2672 393.8936)" class="st2" width="9.9" height="9.9"/>
	</g>
	<g>
		<path class="st1" d="M518.28,110.37c-1.69,0-3.24-0.28-4.66-0.85c-1.42-0.56-2.65-1.36-3.7-2.4s-1.85-2.26-2.42-3.68
			c-0.57-1.42-0.85-2.98-0.85-4.69c0-1.66,0.3-3.2,0.9-4.61c0.6-1.41,1.42-2.63,2.48-3.66c1.06-1.03,2.3-1.84,3.74-2.42
			c1.44-0.58,3.01-0.86,4.72-0.86c1.07,0,2.11,0.14,3.14,0.42c1.02,0.28,1.98,0.69,2.86,1.23c0.88,0.54,1.65,1.19,2.29,1.94
			l-3.33,3.81c-0.45-0.47-0.92-0.88-1.42-1.23c-0.5-0.35-1.05-0.62-1.65-0.82c-0.6-0.19-1.24-0.29-1.92-0.29
			c-0.85,0-1.66,0.16-2.42,0.46c-0.76,0.31-1.42,0.75-1.98,1.31c-0.57,0.57-1.01,1.25-1.33,2.06c-0.32,0.81-0.48,1.72-0.48,2.72
			c0,0.98,0.16,1.87,0.48,2.67c0.32,0.8,0.77,1.49,1.34,2.06s1.27,1.01,2.1,1.31c0.82,0.3,1.73,0.45,2.74,0.45
			c0.68,0,1.33-0.1,1.95-0.29c0.62-0.19,1.19-0.45,1.71-0.78s0.99-0.71,1.39-1.14l2.62,4.16c-0.53,0.6-1.24,1.13-2.13,1.6
			c-0.88,0.47-1.87,0.84-2.94,1.1C520.45,110.24,519.37,110.37,518.28,110.37z"/>
		<path class="st1" d="M536.11,110.05V98.88l0.22,1.57l-9.06-12.8h6.18l6.91,9.92l-2.82-0.1l6.24-9.82h5.98l-8.67,13.15l0.48-2.18
			v11.42H536.11z"/>
		<path class="st1" d="M552.36,110.05v-22.4h9.89c1.54,0,2.84,0.22,3.9,0.66c1.07,0.44,1.87,1.07,2.42,1.89
			c0.54,0.82,0.82,1.81,0.82,2.96c0,1.28-0.31,2.36-0.94,3.23c-0.63,0.88-1.54,1.46-2.74,1.76l-0.06-0.61
			c1,0.21,1.87,0.59,2.61,1.12s1.31,1.19,1.71,1.97c0.41,0.78,0.61,1.66,0.61,2.64c0,1.13-0.19,2.12-0.58,2.96
			c-0.38,0.84-0.94,1.55-1.66,2.13c-0.73,0.58-1.57,1-2.54,1.28c-0.97,0.28-2.04,0.42-3.22,0.42H552.36z M557.48,96.64h4
			c0.55,0,1.03-0.09,1.42-0.27c0.39-0.18,0.69-0.44,0.9-0.77c0.2-0.33,0.3-0.73,0.3-1.2c0-0.68-0.23-1.22-0.7-1.62
			c-0.47-0.39-1.17-0.59-2.11-0.59h-3.81V96.64z M557.48,105.51h4.9c0.6,0,1.1-0.1,1.52-0.29s0.74-0.47,0.98-0.85
			c0.23-0.37,0.35-0.83,0.35-1.36c0-0.49-0.12-0.91-0.37-1.25c-0.25-0.34-0.59-0.6-1.04-0.78c-0.45-0.18-0.98-0.27-1.6-0.27h-4.74
			V105.51z"/>
		<path class="st1" d="M574.79,110.05v-22.4h15.62v4.64h-10.34v13.12h10.66v4.64H574.79z M577.35,100.87v-4.42h11.62v4.42H577.35z"
			/>
		<path class="st1" d="M595.43,110.05v-22.4h10.08c1.43,0,2.72,0.31,3.89,0.93c1.16,0.62,2.07,1.47,2.74,2.54s0.99,2.3,0.99,3.66
			c0,1.41-0.33,2.67-0.99,3.79s-1.57,2-2.72,2.64c-1.15,0.64-2.45,0.96-3.9,0.96h-4.9v7.87H595.43z M600.62,98.02h4.42
			c0.55,0,1.04-0.12,1.46-0.37c0.42-0.24,0.74-0.59,0.96-1.04c0.22-0.45,0.34-0.96,0.34-1.54c0-0.58-0.13-1.08-0.38-1.52
			c-0.26-0.44-0.62-0.77-1.1-1.01c-0.48-0.23-1.06-0.35-1.74-0.35h-3.94V98.02z M607.85,110.05l-5.7-10.11l5.57-0.8l6.34,10.91
			H607.85z"/>
		<path class="st1" d="M625.29,110.05l8.86-22.4h4.61l8.8,22.4h-5.5l-4.22-11.36c-0.17-0.45-0.34-0.93-0.51-1.44
			s-0.34-1.04-0.51-1.58c-0.17-0.54-0.34-1.08-0.5-1.6c-0.16-0.52-0.29-1.01-0.4-1.46l0.96-0.03c-0.13,0.53-0.27,1.06-0.43,1.57
			c-0.16,0.51-0.32,1.02-0.48,1.52c-0.16,0.5-0.34,1-0.53,1.5c-0.19,0.5-0.37,1.02-0.54,1.55l-4.22,11.33H625.29z M629.51,105.76
			l1.7-4.1h10.3l1.66,4.1H629.51z"/>
		<path class="st1" d="M650.34,110.05v-22.4h5.44v17.6h9.98v4.8H650.34z"/>
		<path class="st1" d="M669.83,110.05v-22.4h15.62v4.64h-10.34v13.12h10.66v4.64H669.83z M672.39,100.87v-4.42h11.62v4.42H672.39z"
			/>
		<path class="st1" d="M690.47,110.05v-22.4h10.08c1.43,0,2.72,0.31,3.89,0.93c1.16,0.62,2.07,1.47,2.74,2.54s0.99,2.3,0.99,3.66
			c0,1.41-0.33,2.67-0.99,3.79s-1.57,2-2.72,2.64c-1.15,0.64-2.45,0.96-3.9,0.96h-4.9v7.87H690.47z M695.66,98.02h4.42
			c0.55,0,1.04-0.12,1.46-0.37c0.42-0.24,0.74-0.59,0.96-1.04c0.22-0.45,0.34-0.96,0.34-1.54c0-0.58-0.13-1.08-0.38-1.52
			c-0.26-0.44-0.62-0.77-1.1-1.01c-0.48-0.23-1.06-0.35-1.74-0.35h-3.94V98.02z M702.89,110.05l-5.7-10.11l5.57-0.8l6.34,10.91
			H702.89z"/>
		<path class="st1" d="M717.16,110.05v-17.6h-6.66v-4.8h18.91v4.8h-6.82v17.6H717.16z"/>
		<path class="st2" d="M579.79,132.44v-11.2h1.55l6.85,9.17l-0.26,0.14c-0.04-0.27-0.08-0.56-0.11-0.87
			c-0.03-0.31-0.06-0.65-0.09-1.01s-0.05-0.74-0.06-1.14c-0.02-0.4-0.03-0.82-0.04-1.26s-0.02-0.89-0.02-1.36v-3.68h1.73v11.2h-1.58
			l-6.74-8.83l0.18-0.22c0.05,0.65,0.1,1.2,0.14,1.66c0.04,0.45,0.07,0.84,0.1,1.15s0.04,0.57,0.06,0.77
			c0.01,0.2,0.02,0.36,0.02,0.49c0,0.13,0.01,0.24,0.01,0.34v4.66H579.79z"/>
		<path class="st2" d="M599.2,132.44v-11.2h7.06v1.66h-5.33v7.87h5.33v1.66H599.2z M599.98,127.53v-1.66h5.39v1.66H599.98z"/>
		<path class="st2" d="M615.75,132.44v-11.2h4.56c0.61,0,1.16,0.15,1.66,0.46s0.89,0.72,1.19,1.24c0.3,0.52,0.45,1.1,0.45,1.74
			c0,0.64-0.15,1.22-0.45,1.74c-0.3,0.52-0.7,0.94-1.19,1.26s-1.05,0.47-1.66,0.47h-2.83v4.29H615.75z M617.47,126.49h2.8
			c0.29,0,0.55-0.08,0.78-0.25c0.23-0.17,0.42-0.38,0.57-0.66c0.14-0.27,0.22-0.57,0.22-0.9c0-0.33-0.07-0.63-0.22-0.9
			c-0.14-0.27-0.33-0.48-0.57-0.64s-0.5-0.24-0.78-0.24h-2.8V126.49z"/>
		<path class="st2" d="M630.4,132.44l4.34-11.2h1.76l4.3,11.2h-1.84l-2.56-6.75c-0.03-0.07-0.09-0.26-0.18-0.54
			s-0.19-0.61-0.31-0.96c-0.12-0.35-0.22-0.67-0.32-0.97c-0.1-0.29-0.16-0.48-0.19-0.57l0.37-0.02c-0.06,0.18-0.14,0.41-0.23,0.69
			c-0.09,0.28-0.19,0.57-0.29,0.88c-0.1,0.31-0.2,0.6-0.3,0.87c-0.1,0.27-0.18,0.5-0.24,0.68l-2.54,6.69H630.4z M632.32,129.65
			l0.64-1.66h5.09l0.74,1.66H632.32z"/>
		<path class="st2" d="M649.49,132.44v-11.2h1.73v9.54h5.25v1.66H649.49z"/>
	</g>
</g>
<rect y="393.51" class="st1" width="800" height="406.49"/>
<g>
	<g>
		<polygon class="st0" points="214.54,486.01 208.72,491.83 202.84,497.71 202.73,497.82 191.85,486.94 181.3,497.49 175.63,503.15 
			147.77,475.29 175.63,447.42 187.7,459.49 182.04,465.15 175.63,458.75 159.09,475.29 175.63,491.83 186.3,481.17 192.18,475.29 
			202.92,486.03 208.74,480.21 		"/>
		
			<rect x="187.97" y="498.22" transform="matrix(0.7072 -0.707 0.707 0.7072 -298.9518 282.9803)" class="st0" width="8.41" height="8.41"/>
	</g>
	<g>
		<path class="st0" d="M82.92,540.93c-1.69,0-3.24-0.28-4.66-0.85c-1.42-0.56-2.65-1.36-3.7-2.4c-1.05-1.04-1.85-2.26-2.42-3.68
			c-0.57-1.42-0.85-2.98-0.85-4.69c0-1.66,0.3-3.2,0.9-4.61c0.6-1.41,1.42-2.63,2.48-3.66c1.06-1.03,2.3-1.84,3.74-2.42
			c1.44-0.58,3.01-0.86,4.72-0.86c1.07,0,2.11,0.14,3.14,0.42s1.98,0.69,2.86,1.23s1.65,1.19,2.29,1.94l-3.33,3.81
			c-0.45-0.47-0.92-0.88-1.42-1.23c-0.5-0.35-1.05-0.62-1.65-0.82c-0.6-0.19-1.24-0.29-1.92-0.29c-0.85,0-1.66,0.16-2.42,0.46
			c-0.76,0.31-1.42,0.75-1.98,1.31c-0.57,0.57-1.01,1.25-1.33,2.06c-0.32,0.81-0.48,1.72-0.48,2.72c0,0.98,0.16,1.87,0.48,2.67
			c0.32,0.8,0.77,1.49,1.34,2.06c0.58,0.58,1.27,1.01,2.1,1.31c0.82,0.3,1.73,0.45,2.74,0.45c0.68,0,1.33-0.1,1.95-0.29
			c0.62-0.19,1.19-0.45,1.71-0.78c0.52-0.33,0.99-0.71,1.39-1.14l2.62,4.16c-0.53,0.6-1.24,1.13-2.13,1.6
			c-0.89,0.47-1.87,0.84-2.94,1.1C85.09,540.79,84.01,540.93,82.92,540.93z"/>
		<path class="st0" d="M100.74,540.61v-11.17l0.22,1.57l-9.06-12.8h6.18l6.91,9.92l-2.82-0.1l6.24-9.82h5.98l-8.67,13.15l0.48-2.18
			v11.42H100.74z"/>
		<path class="st0" d="M117,540.61v-22.4h9.89c1.54,0,2.84,0.22,3.9,0.66c1.07,0.44,1.87,1.07,2.42,1.89
			c0.54,0.82,0.82,1.81,0.82,2.96c0,1.28-0.31,2.36-0.94,3.23c-0.63,0.88-1.54,1.46-2.74,1.76l-0.06-0.61
			c1,0.21,1.87,0.59,2.61,1.12c0.74,0.53,1.31,1.19,1.71,1.97c0.4,0.78,0.61,1.66,0.61,2.64c0,1.13-0.19,2.12-0.58,2.96
			c-0.38,0.84-0.94,1.55-1.66,2.13c-0.73,0.58-1.57,1-2.54,1.28c-0.97,0.28-2.04,0.42-3.22,0.42H117z M122.12,527.2h4
			c0.55,0,1.03-0.09,1.42-0.27c0.39-0.18,0.69-0.44,0.9-0.77c0.2-0.33,0.3-0.73,0.3-1.2c0-0.68-0.23-1.22-0.7-1.62
			s-1.17-0.59-2.11-0.59h-3.81V527.2z M122.12,536.06h4.9c0.6,0,1.1-0.1,1.52-0.29s0.74-0.47,0.98-0.85
			c0.23-0.37,0.35-0.83,0.35-1.36c0-0.49-0.12-0.91-0.37-1.25c-0.25-0.34-0.59-0.6-1.04-0.78c-0.45-0.18-0.98-0.27-1.6-0.27h-4.74
			V536.06z"/>
		<path class="st0" d="M139.43,540.61v-22.4h15.62v4.64h-10.34v13.12h10.66v4.64H139.43z M141.99,531.42v-4.42h11.62v4.42H141.99z"
			/>
		<path class="st0" d="M160.07,540.61v-22.4h10.08c1.43,0,2.73,0.31,3.89,0.93c1.16,0.62,2.07,1.47,2.74,2.54
			c0.66,1.08,0.99,2.3,0.99,3.66c0,1.41-0.33,2.67-0.99,3.79c-0.66,1.12-1.57,2-2.72,2.64c-1.15,0.64-2.45,0.96-3.9,0.96h-4.9v7.87
			H160.07z M165.26,528.57h4.42c0.55,0,1.04-0.12,1.46-0.37c0.42-0.24,0.74-0.59,0.96-1.04c0.22-0.45,0.34-0.96,0.34-1.54
			c0-0.58-0.13-1.08-0.38-1.52c-0.26-0.44-0.62-0.77-1.1-1.01c-0.48-0.23-1.06-0.35-1.74-0.35h-3.94V528.57z M172.49,540.61
			l-5.7-10.11l5.57-0.8l6.34,10.91H172.49z"/>
		<path class="st0" d="M189.93,540.61l8.86-22.4h4.61l8.8,22.4h-5.5l-4.22-11.36c-0.17-0.45-0.34-0.93-0.51-1.44
			c-0.17-0.51-0.34-1.04-0.51-1.58s-0.34-1.08-0.5-1.6c-0.16-0.52-0.29-1.01-0.4-1.46l0.96-0.03c-0.13,0.53-0.27,1.06-0.43,1.57
			c-0.16,0.51-0.32,1.02-0.48,1.52c-0.16,0.5-0.34,1-0.53,1.5c-0.19,0.5-0.37,1.02-0.54,1.55l-4.22,11.33H189.93z M194.15,536.32
			l1.7-4.1h10.3l1.66,4.1H194.15z"/>
		<path class="st0" d="M214.98,540.61v-22.4h5.44v17.6h9.98v4.8H214.98z"/>
		<path class="st0" d="M234.47,540.61v-22.4h15.62v4.64h-10.34v13.12h10.66v4.64H234.47z M237.03,531.42v-4.42h11.62v4.42H237.03z"
			/>
		<path class="st0" d="M255.11,540.61v-22.4h10.08c1.43,0,2.73,0.31,3.89,0.93c1.16,0.62,2.07,1.47,2.74,2.54
			c0.66,1.08,0.99,2.3,0.99,3.66c0,1.41-0.33,2.67-0.99,3.79c-0.66,1.12-1.57,2-2.72,2.64c-1.15,0.64-2.45,0.96-3.9,0.96h-4.9v7.87
			H255.11z M260.29,528.57h4.42c0.55,0,1.04-0.12,1.46-0.37c0.42-0.24,0.74-0.59,0.96-1.04c0.22-0.45,0.34-0.96,0.34-1.54
			c0-0.58-0.13-1.08-0.38-1.52c-0.26-0.44-0.62-0.77-1.1-1.01c-0.48-0.23-1.06-0.35-1.74-0.35h-3.94V528.57z M267.53,540.61
			l-5.7-10.11l5.57-0.8l6.34,10.91H267.53z"/>
		<path class="st0" d="M281.8,540.61v-17.6h-6.66v-4.8h18.91v4.8h-6.82v17.6H281.8z"/>
		<path class="st0" d="M138.67,563.54v-11.2h1.55l6.85,9.17l-0.26,0.14c-0.04-0.27-0.08-0.56-0.11-0.87
			c-0.03-0.31-0.06-0.65-0.09-1.01c-0.03-0.36-0.05-0.74-0.06-1.14c-0.02-0.4-0.03-0.82-0.04-1.26c-0.01-0.44-0.02-0.89-0.02-1.36
			v-3.68h1.73v11.2h-1.58l-6.74-8.83l0.18-0.22c0.05,0.65,0.1,1.2,0.14,1.66c0.04,0.45,0.07,0.84,0.1,1.15
			c0.03,0.31,0.05,0.57,0.06,0.77c0.01,0.2,0.02,0.36,0.02,0.49s0.01,0.24,0.01,0.34v4.66H138.67z"/>
		<path class="st0" d="M160.96,563.54v-11.2h7.06V554h-5.33v7.87h5.33v1.66H160.96z M161.74,558.63v-1.66h5.39v1.66H161.74z"/>
		<path class="st0" d="M180.38,563.54v-11.2h4.56c0.61,0,1.16,0.15,1.66,0.46c0.5,0.3,0.89,0.72,1.19,1.24
			c0.3,0.52,0.45,1.1,0.45,1.74c0,0.64-0.15,1.22-0.45,1.74c-0.3,0.52-0.7,0.94-1.19,1.26c-0.5,0.31-1.05,0.47-1.66,0.47h-2.83v4.29
			H180.38z M182.11,557.59h2.8c0.29,0,0.55-0.08,0.78-0.25c0.23-0.17,0.42-0.38,0.57-0.66c0.14-0.27,0.22-0.57,0.22-0.9
			c0-0.33-0.07-0.63-0.22-0.9c-0.14-0.27-0.33-0.48-0.57-0.64c-0.23-0.16-0.5-0.24-0.78-0.24h-2.8V557.59z"/>
		<path class="st0" d="M197.92,563.54l4.34-11.2h1.76l4.3,11.2h-1.84l-2.56-6.75c-0.03-0.07-0.09-0.26-0.18-0.54
			c-0.09-0.29-0.19-0.61-0.31-0.96c-0.12-0.35-0.22-0.67-0.32-0.97c-0.1-0.29-0.16-0.48-0.19-0.57l0.37-0.02
			c-0.06,0.18-0.14,0.41-0.23,0.69s-0.19,0.57-0.29,0.88c-0.1,0.31-0.2,0.6-0.3,0.87c-0.1,0.27-0.18,0.5-0.24,0.68l-2.54,6.69
			H197.92z M199.84,560.76l0.64-1.66h5.09l0.74,1.66H199.84z"/>
		<path class="st0" d="M219.89,563.54v-11.2h1.73v9.54h5.25v1.66H219.89z"/>
	</g>
</g>
<g>
	<polygon class="st0" points="195.6,699.62 189.78,705.44 183.9,711.32 183.79,711.43 172.91,700.55 162.36,711.1 156.69,716.76 
		128.83,688.9 156.69,661.03 168.76,673.1 163.1,678.76 156.69,672.36 140.15,688.9 156.69,705.44 167.36,694.78 173.24,688.9 
		183.98,699.64 189.8,693.82 	"/>
	
		<rect x="169.03" y="711.83" transform="matrix(0.7072 -0.707 0.707 0.7072 -455.5223 332.1344)" class="st0" width="8.41" height="8.41"/>
</g>
<g>
	<path class="st0" d="M468.88,695.25c-1.69,0-3.24-0.28-4.66-0.85c-1.42-0.56-2.65-1.36-3.7-2.4s-1.85-2.26-2.42-3.68
		c-0.56-1.42-0.85-2.98-0.85-4.69c0-1.66,0.3-3.2,0.9-4.61c0.6-1.41,1.42-2.63,2.48-3.66c1.06-1.03,2.3-1.84,3.74-2.42
		c1.44-0.58,3.01-0.86,4.72-0.86c1.07,0,2.11,0.14,3.14,0.42c1.02,0.28,1.98,0.69,2.86,1.23s1.65,1.19,2.29,1.94l-3.33,3.81
		c-0.45-0.47-0.92-0.88-1.42-1.23c-0.5-0.35-1.05-0.62-1.65-0.82c-0.6-0.19-1.24-0.29-1.92-0.29c-0.85,0-1.66,0.16-2.42,0.46
		c-0.76,0.31-1.42,0.75-1.98,1.31c-0.57,0.57-1.01,1.25-1.33,2.06c-0.32,0.81-0.48,1.72-0.48,2.72c0,0.98,0.16,1.87,0.48,2.67
		c0.32,0.8,0.77,1.49,1.34,2.06s1.28,1.01,2.1,1.31c0.82,0.3,1.73,0.45,2.74,0.45c0.68,0,1.33-0.1,1.95-0.29
		c0.62-0.19,1.19-0.45,1.71-0.78c0.52-0.33,0.99-0.71,1.39-1.14l2.62,4.16c-0.53,0.6-1.24,1.13-2.13,1.6
		c-0.89,0.47-1.87,0.84-2.94,1.1S469.97,695.25,468.88,695.25z"/>
	<path class="st0" d="M486.71,694.93v-11.17l0.22,1.57l-9.06-12.8h6.18l6.91,9.92l-2.82-0.1l6.24-9.82h5.98l-8.67,13.15l0.48-2.18
		v11.42H486.71z"/>
	<path class="st0" d="M502.96,694.93v-22.4h9.89c1.54,0,2.84,0.22,3.9,0.66c1.07,0.44,1.87,1.07,2.42,1.89
		c0.54,0.82,0.82,1.81,0.82,2.96c0,1.28-0.31,2.36-0.94,3.23c-0.63,0.88-1.54,1.46-2.74,1.76l-0.06-0.61c1,0.21,1.87,0.59,2.61,1.12
		c0.74,0.53,1.31,1.19,1.71,1.97c0.41,0.78,0.61,1.66,0.61,2.64c0,1.13-0.19,2.12-0.58,2.96c-0.38,0.84-0.94,1.55-1.66,2.13
		c-0.73,0.58-1.57,1-2.54,1.28s-2.04,0.42-3.22,0.42H502.96z M508.08,681.52h4c0.55,0,1.03-0.09,1.42-0.27
		c0.39-0.18,0.69-0.44,0.9-0.77c0.2-0.33,0.3-0.73,0.3-1.2c0-0.68-0.23-1.22-0.7-1.62s-1.17-0.59-2.11-0.59h-3.81V681.52z
		 M508.08,690.39h4.9c0.6,0,1.1-0.1,1.52-0.29s0.74-0.47,0.98-0.85s0.35-0.83,0.35-1.36c0-0.49-0.12-0.91-0.37-1.25
		c-0.25-0.34-0.59-0.6-1.04-0.78c-0.45-0.18-0.98-0.27-1.6-0.27h-4.74V690.39z"/>
	<path class="st0" d="M525.39,694.93v-22.4h15.62v4.64h-10.34v13.12h10.66v4.64H525.39z M527.95,685.75v-4.42h11.62v4.42H527.95z"/>
	<path class="st0" d="M546.03,694.93v-22.4h10.08c1.43,0,2.73,0.31,3.89,0.93s2.07,1.47,2.74,2.54c0.66,1.08,0.99,2.3,0.99,3.66
		c0,1.41-0.33,2.67-0.99,3.79c-0.66,1.12-1.57,2-2.72,2.64c-1.15,0.64-2.45,0.96-3.9,0.96h-4.9v7.87H546.03z M551.22,682.9h4.42
		c0.55,0,1.04-0.12,1.46-0.37c0.42-0.24,0.74-0.59,0.96-1.04c0.22-0.45,0.34-0.96,0.34-1.54c0-0.58-0.13-1.08-0.38-1.52
		c-0.26-0.44-0.62-0.77-1.1-1.01c-0.48-0.23-1.06-0.35-1.74-0.35h-3.94V682.9z M558.45,694.93l-5.7-10.11l5.57-0.8l6.34,10.91
		H558.45z"/>
	<path class="st0" d="M575.89,694.93l8.86-22.4h4.61l8.8,22.4h-5.5l-4.22-11.36c-0.17-0.45-0.34-0.93-0.51-1.44
		c-0.17-0.51-0.34-1.04-0.51-1.58c-0.17-0.54-0.34-1.08-0.5-1.6c-0.16-0.52-0.29-1.01-0.4-1.46l0.96-0.03
		c-0.13,0.53-0.27,1.06-0.43,1.57c-0.16,0.51-0.32,1.02-0.48,1.52c-0.16,0.5-0.34,1-0.53,1.5c-0.19,0.5-0.37,1.02-0.54,1.55
		l-4.22,11.33H575.89z M580.11,690.64l1.7-4.1h10.3l1.66,4.1H580.11z"/>
	<path class="st0" d="M600.94,694.93v-22.4h5.44v17.6h9.98v4.8H600.94z"/>
	<path class="st0" d="M620.43,694.93v-22.4h15.62v4.64h-10.34v13.12h10.66v4.64H620.43z M622.99,685.75v-4.42h11.62v4.42H622.99z"/>
	<path class="st0" d="M641.07,694.93v-22.4h10.08c1.43,0,2.73,0.31,3.89,0.93c1.16,0.62,2.07,1.47,2.74,2.54
		c0.66,1.08,0.99,2.3,0.99,3.66c0,1.41-0.33,2.67-0.99,3.79c-0.66,1.12-1.57,2-2.72,2.64s-2.45,0.96-3.9,0.96h-4.9v7.87H641.07z
		 M646.26,682.9h4.42c0.55,0,1.04-0.12,1.46-0.37c0.42-0.24,0.74-0.59,0.96-1.04c0.22-0.45,0.34-0.96,0.34-1.54
		c0-0.58-0.13-1.08-0.38-1.52c-0.26-0.44-0.62-0.77-1.1-1.01c-0.48-0.23-1.06-0.35-1.74-0.35h-3.94V682.9z M653.49,694.93
		l-5.7-10.11l5.57-0.8l6.34,10.91H653.49z"/>
	<path class="st0" d="M667.76,694.93v-17.6h-6.66v-4.8h18.91v4.8h-6.82v17.6H667.76z"/>
	<path class="st0" d="M524.63,717.87v-11.2h1.55l6.85,9.17l-0.26,0.14c-0.04-0.27-0.08-0.56-0.11-0.87
		c-0.03-0.31-0.06-0.65-0.09-1.01c-0.03-0.36-0.05-0.74-0.06-1.14c-0.02-0.4-0.03-0.82-0.04-1.26c-0.01-0.44-0.02-0.89-0.02-1.36
		v-3.68h1.73v11.2h-1.58l-6.74-8.83l0.18-0.22c0.05,0.65,0.1,1.2,0.13,1.66c0.04,0.45,0.07,0.84,0.1,1.15s0.05,0.57,0.06,0.77
		c0.01,0.2,0.02,0.36,0.02,0.49s0.01,0.24,0.01,0.34v4.66H524.63z"/>
	<path class="st0" d="M546.92,717.87v-11.2h7.06v1.66h-5.33v7.87h5.33v1.66H546.92z M547.71,712.95v-1.66h5.39v1.66H547.71z"/>
	<path class="st0" d="M566.34,717.87v-11.2h4.56c0.61,0,1.16,0.15,1.66,0.46s0.89,0.72,1.19,1.24s0.45,1.1,0.45,1.74
		c0,0.64-0.15,1.22-0.45,1.74s-0.7,0.94-1.19,1.26s-1.05,0.47-1.66,0.47h-2.83v4.29H566.34z M568.07,711.91h2.8
		c0.29,0,0.55-0.08,0.78-0.25c0.23-0.17,0.42-0.38,0.57-0.66c0.14-0.27,0.22-0.57,0.22-0.9c0-0.33-0.07-0.63-0.22-0.9
		c-0.14-0.27-0.33-0.48-0.57-0.64s-0.5-0.24-0.78-0.24h-2.8V711.91z"/>
	<path class="st0" d="M583.88,717.87l4.34-11.2h1.76l4.3,11.2h-1.84l-2.56-6.75c-0.03-0.07-0.09-0.26-0.18-0.54
		c-0.09-0.29-0.19-0.61-0.31-0.96c-0.12-0.35-0.22-0.67-0.32-0.97c-0.1-0.29-0.16-0.48-0.19-0.57l0.37-0.02
		c-0.06,0.18-0.14,0.41-0.23,0.69c-0.09,0.28-0.19,0.57-0.29,0.88c-0.1,0.31-0.2,0.6-0.3,0.87c-0.1,0.27-0.18,0.5-0.24,0.68
		l-2.54,6.69H583.88z M585.8,715.08l0.64-1.66h5.09l0.74,1.66H585.8z"/>
	<path class="st0" d="M605.85,717.87v-11.2h1.73v9.54h5.25v1.66H605.85z"/>
</g>
<g>
	<g>
		<polygon class="st0" points="522.03,510.31 515.18,517.17 508.25,524.09 508.13,524.22 495.31,511.41 482.88,523.84 
			476.21,530.51 443.39,497.69 476.21,464.87 490.43,479.08 483.76,485.75 476.21,478.2 456.73,497.69 476.21,517.17 488.77,504.61 
			495.69,497.69 508.35,510.34 515.2,503.48 		"/>
		
			<rect x="490.74" y="524.69" transform="matrix(0.7072 -0.707 0.707 0.7072 -229.3281 505.5426)" class="st0" width="9.9" height="9.9"/>
	</g>
	<g>
		<path class="st0" d="M518.28,491.69c-1.69,0-3.24-0.28-4.66-0.85c-1.42-0.56-2.65-1.36-3.7-2.4s-1.85-2.26-2.42-3.68
			c-0.57-1.42-0.85-2.98-0.85-4.69c0-1.66,0.3-3.2,0.9-4.61c0.6-1.41,1.42-2.63,2.48-3.66c1.06-1.03,2.3-1.84,3.74-2.42
			c1.44-0.58,3.01-0.86,4.72-0.86c1.07,0,2.11,0.14,3.14,0.42c1.02,0.28,1.98,0.69,2.86,1.23c0.88,0.54,1.65,1.19,2.29,1.94
			l-3.33,3.81c-0.45-0.47-0.92-0.88-1.42-1.23c-0.5-0.35-1.05-0.62-1.65-0.82c-0.6-0.19-1.24-0.29-1.92-0.29
			c-0.85,0-1.66,0.16-2.42,0.46c-0.76,0.31-1.42,0.75-1.98,1.31c-0.57,0.57-1.01,1.25-1.33,2.06c-0.32,0.81-0.48,1.72-0.48,2.72
			c0,0.98,0.16,1.87,0.48,2.67c0.32,0.8,0.77,1.49,1.34,2.06s1.27,1.01,2.1,1.31c0.82,0.3,1.73,0.45,2.74,0.45
			c0.68,0,1.33-0.1,1.95-0.29c0.62-0.19,1.19-0.45,1.71-0.78s0.99-0.71,1.39-1.14l2.62,4.16c-0.53,0.6-1.24,1.13-2.13,1.6
			c-0.88,0.47-1.87,0.84-2.94,1.1C520.45,491.55,519.37,491.69,518.28,491.69z"/>
		<path class="st0" d="M536.11,491.37V480.2l0.22,1.57l-9.06-12.8h6.18l6.91,9.92l-2.82-0.1l6.24-9.82h5.98l-8.67,13.15l0.48-2.18
			v11.42H536.11z"/>
		<path class="st0" d="M552.36,491.37v-22.4h9.89c1.54,0,2.84,0.22,3.9,0.66c1.07,0.44,1.87,1.07,2.42,1.89
			c0.54,0.82,0.82,1.81,0.82,2.96c0,1.28-0.31,2.36-0.94,3.23c-0.63,0.88-1.54,1.46-2.74,1.76l-0.06-0.61
			c1,0.21,1.87,0.59,2.61,1.12s1.31,1.19,1.71,1.97c0.41,0.78,0.61,1.66,0.61,2.64c0,1.13-0.19,2.12-0.58,2.96
			c-0.38,0.84-0.94,1.55-1.66,2.13c-0.73,0.58-1.57,1-2.54,1.28c-0.97,0.28-2.04,0.42-3.22,0.42H552.36z M557.48,477.96h4
			c0.55,0,1.03-0.09,1.42-0.27c0.39-0.18,0.69-0.44,0.9-0.77c0.2-0.33,0.3-0.73,0.3-1.2c0-0.68-0.23-1.22-0.7-1.62
			c-0.47-0.39-1.17-0.59-2.11-0.59h-3.81V477.96z M557.48,486.82h4.9c0.6,0,1.1-0.1,1.52-0.29s0.74-0.47,0.98-0.85
			c0.23-0.37,0.35-0.83,0.35-1.36c0-0.49-0.12-0.91-0.37-1.25c-0.25-0.34-0.59-0.6-1.04-0.78c-0.45-0.18-0.98-0.27-1.6-0.27h-4.74
			V486.82z"/>
		<path class="st0" d="M574.79,491.37v-22.4h15.62v4.64h-10.34v13.12h10.66v4.64H574.79z M577.35,482.18v-4.42h11.62v4.42H577.35z"
			/>
		<path class="st0" d="M595.43,491.37v-22.4h10.08c1.43,0,2.72,0.31,3.89,0.93c1.16,0.62,2.07,1.47,2.74,2.54s0.99,2.3,0.99,3.66
			c0,1.41-0.33,2.67-0.99,3.79s-1.57,2-2.72,2.64c-1.15,0.64-2.45,0.96-3.9,0.96h-4.9v7.87H595.43z M600.62,479.34h4.42
			c0.55,0,1.04-0.12,1.46-0.37c0.42-0.24,0.74-0.59,0.96-1.04c0.22-0.45,0.34-0.96,0.34-1.54c0-0.58-0.13-1.08-0.38-1.52
			c-0.26-0.44-0.62-0.77-1.1-1.01c-0.48-0.23-1.06-0.35-1.74-0.35h-3.94V479.34z M607.85,491.37l-5.7-10.11l5.57-0.8l6.34,10.91
			H607.85z"/>
		<path class="st0" d="M625.29,491.37l8.86-22.4h4.61l8.8,22.4h-5.5l-4.22-11.36c-0.17-0.45-0.34-0.93-0.51-1.44
			s-0.34-1.04-0.51-1.58c-0.17-0.54-0.34-1.08-0.5-1.6c-0.16-0.52-0.29-1.01-0.4-1.46l0.96-0.03c-0.13,0.53-0.27,1.06-0.43,1.57
			c-0.16,0.51-0.32,1.02-0.48,1.52c-0.16,0.5-0.34,1-0.53,1.5c-0.19,0.5-0.37,1.02-0.54,1.55l-4.22,11.33H625.29z M629.51,487.08
			l1.7-4.1h10.3l1.66,4.1H629.51z"/>
		<path class="st0" d="M650.34,491.37v-22.4h5.44v17.6h9.98v4.8H650.34z"/>
		<path class="st0" d="M669.83,491.37v-22.4h15.62v4.64h-10.34v13.12h10.66v4.64H669.83z M672.39,482.18v-4.42h11.62v4.42H672.39z"
			/>
		<path class="st0" d="M690.47,491.37v-22.4h10.08c1.43,0,2.72,0.31,3.89,0.93c1.16,0.62,2.07,1.47,2.74,2.54s0.99,2.3,0.99,3.66
			c0,1.41-0.33,2.67-0.99,3.79s-1.57,2-2.72,2.64c-1.15,0.64-2.45,0.96-3.9,0.96h-4.9v7.87H690.47z M695.66,479.34h4.42
			c0.55,0,1.04-0.12,1.46-0.37c0.42-0.24,0.74-0.59,0.96-1.04c0.22-0.45,0.34-0.96,0.34-1.54c0-0.58-0.13-1.08-0.38-1.52
			c-0.26-0.44-0.62-0.77-1.1-1.01c-0.48-0.23-1.06-0.35-1.74-0.35h-3.94V479.34z M702.89,491.37l-5.7-10.11l5.57-0.8l6.34,10.91
			H702.89z"/>
		<path class="st0" d="M717.16,491.37v-17.6h-6.66v-4.8h18.91v4.8h-6.82v17.6H717.16z"/>
		<path class="st0" d="M579.79,513.75v-11.2h1.55l6.85,9.17l-0.26,0.14c-0.04-0.27-0.08-0.56-0.11-0.87
			c-0.03-0.31-0.06-0.65-0.09-1.01s-0.05-0.74-0.06-1.14c-0.02-0.4-0.03-0.82-0.04-1.26s-0.02-0.89-0.02-1.36v-3.68h1.73v11.2h-1.58
			l-6.74-8.83l0.18-0.22c0.05,0.65,0.1,1.2,0.14,1.66c0.04,0.45,0.07,0.84,0.1,1.15s0.04,0.57,0.06,0.77
			c0.01,0.2,0.02,0.36,0.02,0.49c0,0.13,0.01,0.24,0.01,0.34v4.66H579.79z"/>
		<path class="st0" d="M599.2,513.75v-11.2h7.06v1.66h-5.33v7.87h5.33v1.66H599.2z M599.98,508.84v-1.66h5.39v1.66H599.98z"/>
		<path class="st0" d="M615.75,513.75v-11.2h4.56c0.61,0,1.16,0.15,1.66,0.46s0.89,0.72,1.19,1.24c0.3,0.52,0.45,1.1,0.45,1.74
			c0,0.64-0.15,1.22-0.45,1.74c-0.3,0.52-0.7,0.94-1.19,1.26s-1.05,0.47-1.66,0.47h-2.83v4.29H615.75z M617.47,507.8h2.8
			c0.29,0,0.55-0.08,0.78-0.25c0.23-0.17,0.42-0.38,0.57-0.66c0.14-0.27,0.22-0.57,0.22-0.9c0-0.33-0.07-0.63-0.22-0.9
			c-0.14-0.27-0.33-0.48-0.57-0.64s-0.5-0.24-0.78-0.24h-2.8V507.8z"/>
		<path class="st0" d="M630.4,513.75l4.34-11.2h1.76l4.3,11.2h-1.84L636.4,507c-0.03-0.07-0.09-0.26-0.18-0.54s-0.19-0.61-0.31-0.96
			c-0.12-0.35-0.22-0.67-0.32-0.97c-0.1-0.29-0.16-0.48-0.19-0.57l0.37-0.02c-0.06,0.18-0.14,0.41-0.23,0.69
			c-0.09,0.28-0.19,0.57-0.29,0.88c-0.1,0.31-0.2,0.6-0.3,0.87c-0.1,0.27-0.18,0.5-0.24,0.68l-2.54,6.69H630.4z M632.32,510.97
			l0.64-1.66h5.09l0.74,1.66H632.32z"/>
		<path class="st0" d="M649.49,513.75v-11.2h1.73v9.54h5.25v1.66H649.49z"/>
	</g>
</g>
</svg>
